LankaIcons.ufo
<glyph name="zero" format="2">
	<advance width="625"/>
	<unicode hex="0030"/>
	<note>
		600
  </note>
	<outline>
		<contour>
			<point x="312" y="-9" type="curve" smooth="yes"/>
			<point x="468" y="-9"/>
			<point x="567" y="95"/>
			<point x="567" y="370" type="curve" smooth="yes"/>
			<point x="567" y="645"/>
			<point x="470" y="749"/>
			<point x="312" y="749" type="curve" smooth="yes"/>
			<point x="155" y="749"/>
			<point x="58" y="645"/>
			<point x="58" y="370" type="curve" smooth="yes"/>
			<point x="58" y="95"/>
			<point x="156" y="-9"/>
		</contour>
		<contour>
			<point x="312" y="61" type="curve" smooth="yes"/>
			<point x="207" y="61"/>
			<point x="139" y="132"/>
			<point x="139" y="371" type="curve" smooth="yes"/>
			<point x="139" y="608"/>
			<point x="207" y="679"/>
			<point x="312" y="679" type="curve" smooth="yes"/>
			<point x="418" y="679"/>
			<point x="486" y="608"/>
			<point x="486" y="369" type="curve" smooth="yes"/>
			<point x="486" y="132"/>
			<point x="418" y="61"/>
		</contour>
	</outline>
</glyph>
<glyph name="one" format="2">
	<unicode hex="0031"/>
	<advance width="365"/>
	<outline>
		<contour>
			<point x="195" y="0" type="line"/>
			<point x="276" y="0" type="line"/>
			<point x="276" y="742" type="line"/>
			<point x="224" y="742" type="line"/>
			<point x="12" y="590" type="line"/>
			<point x="12" y="510" type="line"/>
			<point x="224" y="661" type="line"/>
			<point x="195" y="681" type="line"/>
		</contour>
	</outline>
</glyph>
<glyph name="two" format="2">
	<advance width="493"/>
	<unicode hex="0032"/>
	<outline>
		<contour>
			<point x="30" y="0" type="line"/>
			<point x="461" y="0" type="line"/>
			<point x="461" y="70" type="line"/>
			<point x="115" y="70" type="line"/>
			<point x="121" y="47" type="line"/>
			<point x="309" y="295" type="line" smooth="yes"/>
			<point x="393" y="404"/>
			<point x="421" y="473"/>
			<point x="421" y="552" type="curve" smooth="yes"/>
			<point x="422" y="689"/>
			<point x="338" y="749"/>
			<point x="189" y="749" type="curve" smooth="yes"/>
			<point x="128" y="749"/>
			<point x="64" y="738"/>
			<point x="21" y="721" type="curve"/>
			<point x="21" y="651" type="line"/>
			<point x="70" y="670"/>
			<point x="124" y="680"/>
			<point x="182" y="680" type="curve" smooth="yes"/>
			<point x="288" y="680"/>
			<point x="340" y="641"/>
			<point x="340" y="545" type="curve" smooth="yes"/>
			<point x="340" y="483"/>
			<point x="314" y="422"/>
			<point x="241" y="326" type="curve" smooth="yes"/>
			<point x="30" y="45" type="line"/>
		</contour>
	</outline>
</glyph>
<glyph name="three" format="2">
	<unicode hex="0033"/>
	<advance width="506"/>
	<outline>
		<contour>
			<point x="204" y="-9" type="curve" smooth="yes"/>
			<point x="380" y="-9"/>
			<point x="470" y="68"/>
			<point x="470" y="200" type="curve" smooth="yes"/>
			<point x="470" y="307"/>
			<point x="405" y="373"/>
			<point x="284" y="389" type="curve"/>
			<point x="284" y="378" type="line"/>
			<point x="384" y="399"/>
			<point x="446" y="466"/>
			<point x="446" y="562" type="curve" smooth="yes"/>
			<point x="446" y="681"/>
			<point x="364" y="749"/>
			<point x="212" y="749" type="curve" smooth="yes"/>
			<point x="153" y="749"/>
			<point x="90" y="739"/>
			<point x="43" y="722" type="curve"/>
			<point x="43" y="656" type="line"/>
			<point x="95" y="675"/>
			<point x="150" y="684"/>
			<point x="205" y="684" type="curve" smooth="yes"/>
			<point x="312" y="684"/>
			<point x="367" y="639"/>
			<point x="367" y="556" type="curve" smooth="yes"/>
			<point x="367" y="464"/>
			<point x="300" y="413"/>
			<point x="167" y="413" type="curve" smooth="yes"/>
			<point x="119" y="413" type="line"/>
			<point x="119" y="347" type="line"/>
			<point x="207" y="347" type="line" smooth="yes"/>
			<point x="335" y="347"/>
			<point x="392" y="294"/>
			<point x="392" y="204" type="curve" smooth="yes"/>
			<point x="392" y="107"/>
			<point x="329" y="56"/>
			<point x="202" y="56" type="curve" smooth="yes"/>
			<point x="146" y="56"/>
			<point x="83" y="66"/>
			<point x="26" y="85" type="curve"/>
			<point x="26" y="19" type="line"/>
			<point x="80" y="0"/>
			<point x="142" y="-9"/>
		</contour>
	</outline>
</glyph>
<glyph name="four" format="2">
	<advance width="591"/>
	<unicode hex="0034"/>
	<outline>
		<contour>
			<point x="24" y="177" type="line"/>
			<point x="570" y="177" type="line"/>
			<point x="570" y="244" type="line"/>
			<point x="94" y="244" type="line"/>
			<point x="106" y="222" type="line"/>
			<point x="393" y="740" type="line"/>
			<point x="311" y="740" type="line"/>
			<point x="24" y="223" type="line"/>
		</contour>
		<contour>
			<point x="390" y="0" type="line"/>
			<point x="465" y="0" type="line"/>
			<point x="465" y="490" type="line"/>
			<point x="401" y="490" type="line"/>
			<point x="390" y="244" type="line"/>
		</contour>
	</outline>
</glyph>
<glyph name="five" format="2">
	<unicode hex="0035"/>
	<advance width="511"/>
	<outline>
		<contour>
			<point x="218" y="-9" type="curve" smooth="yes"/>
			<point x="392" y="-9"/>
			<point x="483" y="67"/>
			<point x="483" y="209" type="curve" smooth="yes"/>
			<point x="483" y="345"/>
			<point x="396" y="414"/>
			<point x="187" y="426" type="curve" smooth="yes"/>
			<point x="94" y="432" type="line"/>
			<point x="145" y="396" type="line"/>
			<point x="167" y="707" type="line"/>
			<point x="130" y="674" type="line"/>
			<point x="453" y="674" type="line"/>
			<point x="453" y="740" type="line"/>
			<point x="91" y="740" type="line"/>
			<point x="67" y="367" type="line"/>
			<point x="159" y="362" type="line" smooth="yes"/>
			<point x="343" y="351"/>
			<point x="405" y="305"/>
			<point x="405" y="208" type="curve" smooth="yes"/>
			<point x="405" y="108"/>
			<point x="343" y="57"/>
			<point x="216" y="57" type="curve" smooth="yes"/>
			<point x="158" y="57"/>
			<point x="95" y="67"/>
			<point x="39" y="86" type="curve"/>
			<point x="39" y="20" type="line"/>
			<point x="92" y="1"/>
			<point x="155" y="-9"/>
		</contour>
	</outline>
</glyph>
<glyph name="six" format="2">
	<unicode hex="0036"/>
	<advance width="575"/>
	<outline>
		<contour>
			<point x="321" y="-9" type="curve" smooth="yes"/>
			<point x="452" y="-9"/>
			<point x="545" y="66"/>
			<point x="545" y="210" type="curve" smooth="yes"/>
			<point x="545" y="356"/>
			<point x="451" y="425"/>
			<point x="317" y="425" type="curve" smooth="yes"/>
			<point x="243" y="425"/>
			<point x="168" y="399"/>
			<point x="126" y="355" type="curve"/>
			<point x="126" y="288" type="line"/>
			<point x="170" y="340"/>
			<point x="243" y="362"/>
			<point x="304" y="362" type="curve" smooth="yes"/>
			<point x="404" y="362"/>
			<point x="469" y="315"/>
			<point x="469" y="207" type="curve" smooth="yes"/>
			<point x="469" y="101"/>
			<point x="406" y="55"/>
			<point x="321" y="55" type="curve" smooth="yes"/>
			<point x="213" y="55"/>
			<point x="143" y="121"/>
			<point x="143" y="337" type="curve" smooth="yes"/>
			<point x="143" y="365" type="line" smooth="yes"/>
			<point x="143" y="589"/>
			<point x="223" y="683"/>
			<point x="379" y="683" type="curve" smooth="yes"/>
			<point x="423" y="683"/>
			<point x="471" y="676"/>
			<point x="511" y="660" type="curve"/>
			<point x="511" y="727" type="line"/>
			<point x="472" y="743"/>
			<point x="424" y="749"/>
			<point x="376" y="749" type="curve" smooth="yes"/>
			<point x="175" y="749"/>
			<point x="63" y="625"/>
			<point x="63" y="346" type="curve" smooth="yes"/>
			<point x="63" y="86"/>
			<point x="167" y="-9"/>
		</contour>
	</outline>
</glyph>
<glyph name="seven" format="2">
	<unicode hex="0037"/>
	<advance width="470"/>
	<outline>
		<contour>
			<point x="85" y="0" type="line"/>
			<point x="169" y="0" type="line"/>
			<point x="441" y="695" type="line"/>
			<point x="441" y="740" type="line"/>
			<point x="6" y="740" type="line"/>
			<point x="6" y="670" type="line"/>
			<point x="385" y="670" type="line"/>
			<point x="361" y="696" type="line"/>
		</contour>
	</outline>
</glyph>
<glyph name="eight" format="2">
	<advance width="625"/>
	<unicode hex="0038"/>
	<outline>
		<contour>
			<point x="317" y="-9" type="curve" smooth="yes"/>
			<point x="483" y="-9"/>
			<point x="575" y="71"/>
			<point x="575" y="191" type="curve" smooth="yes"/>
			<point x="575" y="297"/>
			<point x="513" y="359"/>
			<point x="341" y="402" type="curve" smooth="yes"/>
			<point x="194" y="437"/>
			<point x="152" y="480"/>
			<point x="152" y="559" type="curve" smooth="yes"/>
			<point x="152" y="637"/>
			<point x="207" y="687"/>
			<point x="313" y="687" type="curve" smooth="yes"/>
			<point x="417" y="687"/>
			<point x="478" y="641"/>
			<point x="478" y="557" type="curve" smooth="yes"/>
			<point x="478" y="480"/>
			<point x="439" y="432"/>
			<point x="347" y="393" type="curve"/>
			<point x="404" y="368" type="line"/>
			<point x="502" y="407"/>
			<point x="551" y="474"/>
			<point x="551" y="563" type="curve" smooth="yes"/>
			<point x="551" y="678"/>
			<point x="462" y="749"/>
			<point x="314" y="749" type="curve" smooth="yes"/>
			<point x="161" y="749"/>
			<point x="73" y="674"/>
			<point x="73" y="556" type="curve" smooth="yes"/>
			<point x="73" y="448"/>
			<point x="136" y="380"/>
			<point x="309" y="339" type="curve" smooth="yes"/>
			<point x="450" y="305"/>
			<point x="496" y="266"/>
			<point x="496" y="186" type="curve" smooth="yes"/>
			<point x="496" y="101"/>
			<point x="434" y="53"/>
			<point x="317" y="53" type="curve" smooth="yes"/>
			<point x="192" y="53"/>
			<point x="128" y="103"/>
			<point x="128" y="193" type="curve" smooth="yes"/>
			<point x="128" y="270"/>
			<point x="177" y="333"/>
			<point x="270" y="361" type="curve"/>
			<point x="209" y="386" type="line"/>
			<point x="109" y="353"/>
			<point x="50" y="281"/>
			<point x="50" y="186" type="curve" smooth="yes"/>
			<point x="50" y="64"/>
			<point x="141" y="-9"/>
		</contour>
	</outline>
</glyph>
<glyph name="A" format="2">
	<unicode hex="0041"/>
	<advance width="674"/>
	<outline>
		<contour>
			<point x="14" y="0" type="line"/>
			<point x="95" y="0" type="line"/>
			<point x="343" y="701" type="line"/>
			<point x="329" y="701" type="line"/>
			<point x="577" y="0" type="line"/>
			<point x="660" y="0" type="line"/>
			<point x="394" y="740" type="line"/>
			<point x="280" y="740" type="line"/>
		</contour>
		<contour>
			<point x="153" y="239" type="line"/>
			<point x="521" y="239" type="line"/>
			<point x="502" y="308" type="line"/>
			<point x="172" y="308" type="line"/>
		</contour>
	</outline>
	<anchor name="ogonek" x="660" y="0"/>
	<anchor name="bottom" x="337" y="0"/>
	<anchor name="top" x="337" y="760"/>
	<note>
		520
	</note>
</glyph>
<glyph name="B" format="2">
	<advance width="629"/>
	<unicode hex="0042"/>
	<outline>
		<contour>
			<point x="267" y="-6" type="curve" smooth="yes"/>
			<point x="503" y="-6"/>
			<point x="593" y="66"/>
			<point x="593" y="201" type="curve" smooth="yes"/>
			<point x="593" y="303"/>
			<point x="537" y="371"/>
			<point x="421" y="385" type="curve"/>
			<point x="420" y="378" type="line"/>
			<point x="528" y="395"/>
			<point x="572" y="465"/>
			<point x="572" y="551" type="curve" smooth="yes"/>
			<point x="572" y="683"/>
			<point x="487" y="748"/>
			<point x="288" y="748" type="curve" smooth="yes"/>
			<point x="211" y="748"/>
			<point x="146" y="740"/>
			<point x="85" y="728" type="curve"/>
			<point x="85" y="5" type="line"/>
			<point x="148" y="-3"/>
			<point x="208" y="-6"/>
		</contour>
		<contour>
			<point x="284" y="58" type="curve" smooth="yes"/>
			<point x="240" y="58"/>
			<point x="203" y="60"/>
			<point x="164" y="65" type="curve"/>
			<point x="164" y="673" type="line"/>
			<point x="202" y="679"/>
			<point x="241" y="683"/>
			<point x="295" y="683" type="curve" smooth="yes"/>
			<point x="439" y="683"/>
			<point x="494" y="644"/>
			<point x="494" y="547" type="curve" smooth="yes"/>
			<point x="494" y="457"/>
			<point x="443" y="413"/>
			<point x="310" y="413" type="curve" smooth="yes"/>
			<point x="153" y="413" type="line"/>
			<point x="153" y="347" type="line"/>
			<point x="324" y="347" type="line" smooth="yes"/>
			<point x="456" y="347"/>
			<point x="516" y="301"/>
			<point x="516" y="204" type="curve" smooth="yes"/>
			<point x="516" y="106"/>
			<point x="459" y="58"/>
		</contour>
	</outline>
	<anchor name="top" x="322" y="740"/>
	<anchor name="bottom" x="322" y="0"/>
</glyph>
<glyph name="D" format="2">
	<unicode hex="0044"/>
	<advance width="700"/>
	<outline>
		<contour>
			<point x="260" y="-6" type="curve" smooth="yes"/>
			<point x="516" y="-6"/>
			<point x="647" y="109"/>
			<point x="647" y="370" type="curve" smooth="yes"/>
			<point x="647" y="626"/>
			<point x="522" y="747"/>
			<point x="278" y="747" type="curve" smooth="yes"/>
			<point x="215" y="747"/>
			<point x="145" y="740"/>
			<point x="85" y="728" type="curve"/>
			<point x="85" y="5" type="line"/>
			<point x="151" y="-3"/>
			<point x="204" y="-6"/>
		</contour>
		<contour>
			<point x="276" y="63" type="curve" smooth="yes"/>
			<point x="233" y="63"/>
			<point x="200" y="65"/>
			<point x="166" y="70" type="curve"/>
			<point x="166" y="669" type="line"/>
			<point x="205" y="675"/>
			<point x="245" y="678"/>
			<point x="281" y="678" type="curve" smooth="yes"/>
			<point x="470" y="678"/>
			<point x="563" y="586"/>
			<point x="563" y="370" type="curve" smooth="yes"/>
			<point x="563" y="152"/>
			<point x="468" y="63"/>
		</contour>
	</outline>
	<anchor name="bottom" x="319" y="0"/>
	<anchor name="stroke" x="85" y="381"/>
	<anchor name="top" x="317" y="760"/>
	<anchor name="center" x="348" y="370"/>
</glyph>
<glyph name="E" format="2">
	<unicode hex="0045"/>
	<advance width="583"/>
	<outline>
		<contour>
			<point x="85" y="0" type="line"/>
			<point x="547" y="0" type="line"/>
			<point x="547" y="69" type="line"/>
			<point x="165" y="69" type="line"/>
			<point x="165" y="671" type="line"/>
			<point x="542" y="671" type="line"/>
			<point x="542" y="740" type="line"/>
			<point x="85" y="740" type="line"/>
		</contour>
		<contour>
			<point x="136" y="345" type="line"/>
			<point x="493" y="345" type="line"/>
			<point x="493" y="414" type="line"/>
			<point x="136" y="414" type="line"/>
		</contour>
	</outline>
	<anchor name="ogonek" x="506" y="0"/>
	<anchor name="top" x="324" y="760"/>
	<anchor name="topleft" x="20" y="740"/>
	<anchor name="bottom" x="325" y="0"/>
</glyph>
<glyph name="J" format="2">
	<advance width="250"/>
	<unicode hex="004A"/>
	<outline>
		<contour>
			<point x="49" y="-172" type="line"/>
			<point x="132" y="-70"/>
			<point x="162" y="17"/>
			<point x="166" y="135" type="curve"/>
			<point x="166" y="740" type="line"/>
			<point x="85" y="740" type="line"/>
			<point x="85" y="145" type="line" smooth="yes"/>
			<point x="85" y="30"/>
			<point x="59" y="-49"/>
			<point x="-5" y="-135" type="curve"/>
		</contour>
	</outline>
	<anchor name="top" x="125" y="760"/>
	<anchor name="bottom" x="185" y="0"/>
</glyph>
<glyph name="K" format="2">
	<advance width="619"/>
	<unicode hex="004B"/>
	<outline>
		<contour>
			<point x="538" y="0" type="line"/>
			<point x="630" y="0" type="line"/>
			<point x="330" y="392" type="line"/>
			<point x="329" y="369" type="line"/>
			<point x="609" y="740" type="line"/>
			<point x="520" y="740" type="line"/>
			<point x="248" y="378" type="line"/>
		</contour>
		<contour>
			<point x="85" y="0" type="line"/>
			<point x="166" y="0" type="line"/>
			<point x="166" y="740" type="line"/>
			<point x="85" y="740" type="line"/>
		</contour>
		<contour>
			<point x="152" y="343" type="line"/>
			<point x="285" y="343" type="line"/>
			<point x="285" y="416" type="line"/>
			<point x="152" y="416" type="line"/>
		</contour>
	</outline>
	<anchor name="top" x="322" y="740"/>
	<anchor name="bottom" x="323" y="0"/>
</glyph>
<glyph name="L" format="2">
	<unicode hex="004C"/>
	<advance width="536"/>
	<outline>
		<contour>
			<point x="85" y="0" type="line"/>
			<point x="530" y="0" type="line"/>
			<point x="530" y="71" type="line"/>
			<point x="166" y="71" type="line"/>
			<point x="166" y="740" type="line"/>
			<point x="85" y="740" type="line"/>
		</contour>
	</outline>
	<anchor name="periodcentered" x="388" y="405"/>
	<anchor name="top" x="126" y="760"/>
	<anchor name="slash" x="126" y="397"/>
	<anchor name="caronalt" x="350" y="808"/>
	<anchor name="bottom" x="307" y="0"/>
</glyph>
<glyph name="O" format="2">
	<advance width="719"/>
	<unicode hex="004F"/>
	<outline>
		<contour>
			<point x="360" y="-9" type="curve" smooth="yes"/>
			<point x="543" y="-9"/>
			<point x="667" y="103"/>
			<point x="667" y="370" type="curve" smooth="yes"/>
			<point x="667" y="637"/>
			<point x="544" y="749"/>
			<point x="360" y="749" type="curve" smooth="yes"/>
			<point x="176" y="749"/>
			<point x="53" y="637"/>
			<point x="53" y="370" type="curve" smooth="yes"/>
			<point x="53" y="103"/>
			<point x="175" y="-9"/>
		</contour>
		<contour>
			<point x="360" y="60" type="curve" smooth="yes"/>
			<point x="225" y="60"/>
			<point x="137" y="141"/>
			<point x="137" y="373" type="curve" smooth="yes"/>
			<point x="137" y="599"/>
			<point x="225" y="680"/>
			<point x="360" y="680" type="curve" smooth="yes"/>
			<point x="494" y="680"/>
			<point x="583" y="599"/>
			<point x="583" y="367" type="curve" smooth="yes"/>
			<point x="583" y="141"/>
			<point x="495" y="60"/>
		</contour>
	</outline>
	<anchor name="bottom" x="360" y="0"/>
	<anchor name="ogonek" x="442" y="0"/>
	<anchor name="top" x="360" y="760"/>
	<anchor name="topright" x="445" y="740"/>
	<anchor name="topleft" x="23" y="740"/>
	<anchor name="center" x="360" y="370"/>
</glyph>
<glyph name="S" format="2">
	<unicode hex="0053"/>
	<advance width="531"/>
	<outline>
		<contour>
			<point x="231" y="-9" type="curve" smooth="yes"/>
			<point x="399" y="-9"/>
			<point x="494" y="67"/>
			<point x="494" y="201" type="curve" smooth="yes"/>
			<point x="494" y="308"/>
			<point x="432" y="370"/>
			<point x="295" y="404" type="curve" smooth="yes"/>
			<point x="255" y="415" type="line" smooth="yes"/>
			<point x="155" y="441"/>
			<point x="119" y="476"/>
			<point x="119" y="549" type="curve" smooth="yes"/>
			<point x="119" y="632"/>
			<point x="176" y="680"/>
			<point x="303" y="680" type="curve" smooth="yes"/>
			<point x="357" y="680"/>
			<point x="411" y="673"/>
			<point x="462" y="657" type="curve"/>
			<point x="462" y="727" type="line"/>
			<point x="416" y="741"/>
			<point x="357" y="749"/>
			<point x="300" y="749" type="curve" smooth="yes"/>
			<point x="126" y="749"/>
			<point x="37" y="671"/>
			<point x="37" y="544" type="curve" smooth="yes"/>
			<point x="37" y="437"/>
			<point x="99" y="375"/>
			<point x="225" y="343" type="curve" smooth="yes"/>
			<point x="265" y="332" type="line" smooth="yes"/>
			<point x="372" y="304"/>
			<point x="412" y="270"/>
			<point x="412" y="195" type="curve" smooth="yes"/>
			<point x="412" y="107"/>
			<point x="354" y="60"/>
			<point x="232" y="60" type="curve" smooth="yes"/>
			<point x="176" y="60"/>
			<point x="111" y="70"/>
			<point x="49" y="90" type="curve"/>
			<point x="49" y="20" type="line"/>
			<point x="106" y="1"/>
			<point x="172" y="-9"/>
		</contour>
	</outline>
	<anchor name="top" x="270" y="760"/>
	<anchor name="bottom" x="270" y="0"/>
</glyph>
<glyph name="T" format="2">
	<advance width="588"/>
	<unicode hex="0054"/>
	<outline>
		<contour>
			<point x="253" y="0" type="line"/>
			<point x="334" y="0" type="line"/>
			<point x="334" y="669" type="line"/>
			<point x="581" y="669" type="line"/>
			<point x="581" y="740" type="line"/>
			<point x="7" y="740" type="line"/>
			<point x="7" y="669" type="line"/>
			<point x="253" y="669" type="line"/>
		</contour>
	</outline>
	<anchor name="center" x="294" y="387"/>
	<anchor name="bottom" x="294" y="0"/>
	<anchor name="top" x="294" y="760"/>
</glyph>
<glyph name="V" format="2">
	<advance width="657"/>
	<unicode hex="0056"/>
	<outline>
		<contour>
			<point x="269" y="0" type="line"/>
			<point x="387" y="0" type="line"/>
			<point x="651" y="740" type="line"/>
			<point x="571" y="740" type="line"/>
			<point x="321" y="37" type="line"/>
			<point x="339" y="37" type="line"/>
			<point x="91" y="740" type="line"/>
			<point x="5" y="740" type="line"/>
		</contour>
	</outline>
</glyph>
<glyph name="Y" format="2">
	<advance width="588"/>
	<unicode hex="0059"/>
	<outline>
		<contour>
			<point x="254" y="0" type="line"/>
			<point x="335" y="0" type="line"/>
			<point x="335" y="362" type="line"/>
			<point x="317" y="301" type="line"/>
			<point x="599" y="740" type="line"/>
			<point x="515" y="740" type="line"/>
			<point x="282" y="380" type="line"/>
			<point x="310" y="380" type="line"/>
			<point x="74" y="740" type="line"/>
			<point x="-16" y="740" type="line"/>
			<point x="271" y="301" type="line"/>
			<point x="254" y="363" type="line"/>
		</contour>
	</outline>
	<anchor name="top" x="294" y="760"/>
	<anchor name="bottom" x="294" y="0"/>
	<anchor name="topleft" x="3" y="740"/>
</glyph>
<glyph name="b" format="2">
	<unicode hex="0062"/>
	<advance width="565"/>
	<outline>
		<contour>
			<point x="243" y="-9" type="curve" smooth="yes"/>
			<point x="423" y="-10"/>
			<point x="518" y="85"/>
			<point x="518" y="282" type="curve" smooth="yes"/>
			<point x="518" y="479"/>
			<point x="424" y="551"/>
			<point x="310" y="551" type="curve" smooth="yes"/>
			<point x="245" y="551"/>
			<point x="193" y="524"/>
			<point x="160" y="486" type="curve"/>
			<point x="156" y="486" type="line"/>
			<point x="156" y="808" type="line"/>
			<point x="76" y="808" type="line"/>
			<point x="76" y="15" type="line"/>
			<point x="126" y="-1"/>
			<point x="186" y="-9"/>
		</contour>
		<contour>
			<point x="249" y="56" type="curve" smooth="yes"/>
			<point x="214" y="56"/>
			<point x="180" y="61"/>
			<point x="156" y="68" type="curve"/>
			<point x="156" y="419" type="line"/>
			<point x="188" y="462"/>
			<point x="237" y="482"/>
			<point x="287" y="482" type="curve" smooth="yes"/>
			<point x="372" y="482"/>
			<point x="436" y="436"/>
			<point x="436" y="274" type="curve" smooth="yes"/>
			<point x="436" y="119"/>
			<point x="371" y="56"/>
		</contour>
	</outline>
	<anchor name="top" x="116" y="808"/>
	<anchor name="bottom" x="284" y="0"/>
</glyph>
<glyph name="c" format="2">
	<advance width="438"/>
	<unicode hex="0063"/>
	<outline>
		<contour>
			<point x="287" y="-10" type="curve" smooth="yes"/>
			<point x="331" y="-10"/>
			<point x="376" y="-2"/>
			<point x="418" y="13" type="curve"/>
			<point x="418" y="81" type="line"/>
			<point x="371" y="65"/>
			<point x="333" y="59"/>
			<point x="299" y="59" type="curve" smooth="yes"/>
			<point x="188" y="59"/>
			<point x="130" y="115"/>
			<point x="130" y="273" type="curve" smooth="yes"/>
			<point x="130" y="427"/>
			<point x="191" y="483"/>
			<point x="316" y="483" type="curve" smooth="yes"/>
			<point x="349" y="483"/>
			<point x="383" y="478"/>
			<point x="418" y="469" type="curve"/>
			<point x="418" y="537" type="line"/>
			<point x="384" y="546"/>
			<point x="345" y="551"/>
			<point x="307" y="551" type="curve" smooth="yes"/>
			<point x="140" y="551"/>
			<point x="47" y="468"/>
			<point x="47" y="271" type="curve" smooth="yes"/>
			<point x="47" y="75"/>
			<point x="133" y="-10"/>
		</contour>
	</outline>
	<anchor name="top" x="257" y="600"/>
	<anchor name="bottom" x="259" y="0"/>
</glyph>
<glyph name="d" format="2">
	<unicode hex="0064"/>
	<advance width="565"/>
	<outline>
		<contour>
			<point x="261" y="-9" type="curve" smooth="yes"/>
			<point x="325" y="-9"/>
			<point x="378" y="19"/>
			<point x="410" y="59" type="curve"/>
			<point x="415" y="59" type="line"/>
			<point x="421" y="0" type="line"/>
			<point x="489" y="0" type="line"/>
			<point x="489" y="808" type="line"/>
			<point x="409" y="808" type="line"/>
			<point x="409" y="544" type="line"/>
			<point x="383" y="548"/>
			<point x="351" y="551"/>
			<point x="321" y="551" type="curve" smooth="yes"/>
			<point x="142" y="551"/>
			<point x="47" y="456"/>
			<point x="47" y="260" type="curve" smooth="yes"/>
			<point x="47" y="64"/>
			<point x="142" y="-9"/>
		</contour>
		<contour>
			<point x="279" y="60" type="curve" smooth="yes"/>
			<point x="190" y="60"/>
			<point x="129" y="107"/>
			<point x="129" y="267" type="curve" smooth="yes"/>
			<point x="129" y="422"/>
			<point x="193" y="486"/>
			<point x="320" y="486" type="curve" smooth="yes"/>
			<point x="350" y="486"/>
			<point x="385" y="482"/>
			<point x="409" y="476" type="curve"/>
			<point x="409" y="126" type="line"/>
			<point x="377" y="80"/>
			<point x="327" y="60"/>
		</contour>
	</outline>
	<anchor name="center" x="281" y="271"/>
	<anchor name="stroke" x="489" y="678"/>
	<anchor name="top" x="279" y="600"/>
	<anchor name="topright" x="540" y="543"/>
	<anchor name="caronalt" x="545" y="808"/>
	<anchor name="bottom" x="283" y="0"/>
</glyph>
<glyph name="f" format="2">
	<unicode hex="0066"/>
	<advance width="358"/>
	<outline>
		<contour>
			<point x="111" y="0" type="line"/>
			<point x="191" y="0" type="line"/>
			<point x="191" y="628" type="line" smooth="yes"/>
			<point x="191" y="716"/>
			<point x="232" y="751"/>
			<point x="316" y="751" type="curve" smooth="yes"/>
			<point x="339" y="751"/>
			<point x="360" y="749"/>
			<point x="382" y="745" type="curve"/>
			<point x="382" y="812" type="line"/>
			<point x="359" y="816"/>
			<point x="333" y="818"/>
			<point x="309" y="818" type="curve" smooth="yes"/>
			<point x="179" y="818"/>
			<point x="111" y="751"/>
			<point x="111" y="624" type="curve" smooth="yes"/>
		</contour>
		<contour>
			<point x="9" y="476" type="line"/>
			<point x="362" y="476" type="line"/>
			<point x="362" y="543" type="line"/>
			<point x="9" y="543" type="line"/>
		</contour>
	</outline>
</glyph>
<glyph name="i" format="2">
	<advance width="231"/>
	<unicode hex="0069"/>
	<outline>
		<contour>
			<point x="76" y="0" type="line"/>
			<point x="156" y="0" type="line"/>
			<point x="156" y="543" type="line"/>
			<point x="76" y="543" type="line"/>
		</contour>
		<contour>
			<point x="116" y="660" type="curve" smooth="yes"/>
			<point x="152" y="660"/>
			<point x="172" y="679"/>
			<point x="172" y="710" type="curve" smooth="yes"/>
			<point x="172" y="742"/>
			<point x="152" y="761"/>
			<point x="116" y="761" type="curve" smooth="yes"/>
			<point x="80" y="761"/>
			<point x="60" y="742"/>
			<point x="60" y="710" type="curve" smooth="yes"/>
			<point x="60" y="679"/>
			<point x="80" y="660"/>
		</contour>
	</outline>
</glyph>
<glyph name="k" format="2">
	<advance width="519"/>
	<unicode hex="006B"/>
	<outline>
		<contour>
			<point x="439" y="0" type="line"/>
			<point x="530" y="0" type="line"/>
			<point x="305" y="290" type="line"/>
			<point x="305" y="268" type="line"/>
			<point x="513" y="543" type="line"/>
			<point x="424" y="543" type="line"/>
			<point x="222" y="278" type="line"/>
		</contour>
		<contour>
			<point x="146" y="244" type="line"/>
			<point x="256" y="244" type="line"/>
			<point x="256" y="311" type="line"/>
			<point x="146" y="311" type="line"/>
		</contour>
		<contour>
			<point x="76" y="0" type="line"/>
			<point x="156" y="0" type="line"/>
			<point x="156" y="808" type="line"/>
			<point x="76" y="808" type="line"/>
		</contour>
	</outline>
	<anchor name="top" x="116" y="808"/>
	<anchor name="bottom" x="278" y="0"/>
</glyph>
<glyph name="m" format="2">
	<advance width="847"/>
	<unicode hex="006D"/>
	<outline>
		<contour>
			<point x="76" y="0" type="line"/>
			<point x="156" y="0" type="line"/>
			<point x="156" y="405" type="line"/>
			<point x="190" y="459"/>
			<point x="244" y="479"/>
			<point x="289" y="479" type="curve" smooth="yes"/>
			<point x="348" y="479"/>
			<point x="389" y="449"/>
			<point x="389" y="355" type="curve" smooth="yes"/>
			<point x="389" y="0" type="line"/>
			<point x="468" y="0" type="line"/>
			<point x="468" y="361" type="line" smooth="yes"/>
			<point x="468" y="500"/>
			<point x="401" y="551"/>
			<point x="311" y="551" type="curve" smooth="yes"/>
			<point x="250" y="551"/>
			<point x="195" y="527"/>
			<point x="154" y="481" type="curve"/>
			<point x="149" y="481" type="line"/>
			<point x="143" y="543" type="line"/>
			<point x="76" y="543" type="line"/>
		</contour>
		<contour>
			<point x="698" y="0" type="line"/>
			<point x="778" y="0" type="line"/>
			<point x="778" y="359" type="line" smooth="yes"/>
			<point x="778" y="500"/>
			<point x="708" y="551"/>
			<point x="614" y="551" type="curve" smooth="yes"/>
			<point x="555" y="551"/>
			<point x="487" y="527"/>
			<point x="435" y="458" type="curve"/>
			<point x="454" y="394" type="line"/>
			<point x="490" y="459"/>
			<point x="550" y="479"/>
			<point x="595" y="479" type="curve" smooth="yes"/>
			<point x="655" y="479"/>
			<point x="698" y="449"/>
			<point x="698" y="355" type="curve" smooth="yes"/>
		</contour>
	</outline>
	<anchor name="top" x="428" y="600"/>
	<anchor name="bottom" x="428" y="0"/>
</glyph>
<glyph name="q" format="2">
	<unicode hex="0071"/>
	<advance width="565"/>
	<outline>
		<contour>
			<point x="409" y="-220" type="line"/>
			<point x="489" y="-220" type="line"/>
			<point x="489" y="526" type="line"/>
			<point x="440" y="542"/>
			<point x="378" y="551"/>
			<point x="322" y="551" type="curve" smooth="yes"/>
			<point x="141" y="551"/>
			<point x="47" y="456"/>
			<point x="47" y="260" type="curve" smooth="yes"/>
			<point x="47" y="63"/>
			<point x="141" y="-9"/>
			<point x="254" y="-9" type="curve" smooth="yes"/>
			<point x="320" y="-9"/>
			<point x="371" y="17"/>
			<point x="404" y="55" type="curve"/>
			<point x="409" y="55" type="line"/>
		</contour>
		<contour>
			<point x="278" y="60" type="curve" smooth="yes"/>
			<point x="192" y="60"/>
			<point x="129" y="105"/>
			<point x="129" y="267" type="curve" smooth="yes"/>
			<point x="129" y="422"/>
			<point x="194" y="486"/>
			<point x="315" y="486" type="curve" smooth="yes"/>
			<point x="351" y="486"/>
			<point x="385" y="481"/>
			<point x="409" y="474" type="curve"/>
			<point x="409" y="122" type="line"/>
			<point x="377" y="79"/>
			<point x="326" y="60"/>
		</contour>
	</outline>
</glyph>
<glyph name="r" format="2">
	<advance width="362"/>
	<unicode hex="0072"/>
	<outline>
		<contour>
			<point x="76" y="0" type="line"/>
			<point x="156" y="0" type="line"/>
			<point x="156" y="396" type="line"/>
			<point x="191" y="448"/>
			<point x="256" y="473"/>
			<point x="309" y="473" type="curve" smooth="yes"/>
			<point x="326" y="473"/>
			<point x="341" y="472"/>
			<point x="356" y="470" type="curve"/>
			<point x="356" y="544" type="line"/>
			<point x="342" y="547"/>
			<point x="329" y="548"/>
			<point x="313" y="548" type="curve" smooth="yes"/>
			<point x="252" y="548"/>
			<point x="191" y="521"/>
			<point x="154" y="470" type="curve"/>
			<point x="149" y="470" type="line"/>
			<point x="142" y="543" type="line"/>
			<point x="76" y="543" type="line"/>
		</contour>
	</outline>
	<anchor name="top" x="211" y="600"/>
	<anchor name="bottom" x="116" y="0"/>
</glyph>
<glyph name="s" format="2">
	<unicode hex="0073"/>
	<advance width="450"/>
	<outline>
		<contour>
			<point x="205" y="-10" type="curve" smooth="yes"/>
			<point x="343" y="-10"/>
			<point x="416" y="51"/>
			<point x="416" y="149" type="curve" smooth="yes"/>
			<point x="416" y="231"/>
			<point x="375" y="276"/>
			<point x="275" y="297" type="curve" smooth="yes"/>
			<point x="202" y="312" type="line" smooth="yes"/>
			<point x="142" y="325"/>
			<point x="121" y="353"/>
			<point x="121" y="396" type="curve" smooth="yes"/>
			<point x="121" y="447"/>
			<point x="157" y="487"/>
			<point x="261" y="487" type="curve" smooth="yes"/>
			<point x="305" y="487"/>
			<point x="343" y="482"/>
			<point x="387" y="470" type="curve"/>
			<point x="387" y="535" type="line"/>
			<point x="348" y="545"/>
			<point x="306" y="551"/>
			<point x="259" y="551" type="curve" smooth="yes"/>
			<point x="113" y="551"/>
			<point x="44" y="485"/>
			<point x="44" y="394" type="curve" smooth="yes"/>
			<point x="44" y="316"/>
			<point x="83" y="268"/>
			<point x="182" y="246" type="curve" smooth="yes"/>
			<point x="255" y="232" type="line" smooth="yes"/>
			<point x="316" y="218"/>
			<point x="339" y="195"/>
			<point x="339" y="145" type="curve" smooth="yes"/>
			<point x="339" y="88"/>
			<point x="299" y="54"/>
			<point x="205" y="54" type="curve" smooth="yes"/>
			<point x="155" y="54"/>
			<point x="108" y="61"/>
			<point x="55" y="77" type="curve"/>
			<point x="55" y="12" type="line"/>
			<point x="101" y="-3"/>
			<point x="150" y="-10"/>
		</contour>
	</outline>
	<anchor name="top" x="228" y="600"/>
	<anchor name="bottom" x="228" y="0"/>
</glyph>
<glyph name="t" format="2">
	<advance width="374"/>
	<unicode hex="0074"/>
	<outline>
		<contour>
			<point x="283" y="-9" type="curve" smooth="yes"/>
			<point x="311" y="-9"/>
			<point x="339" y="-6"/>
			<point x="366" y="0" type="curve"/>
			<point x="366" y="68" type="line"/>
			<point x="340" y="63"/>
			<point x="320" y="60"/>
			<point x="300" y="60" type="curve" smooth="yes"/>
			<point x="225" y="60"/>
			<point x="187" y="92"/>
			<point x="187" y="183" type="curve" smooth="yes"/>
			<point x="187" y="740" type="line"/>
			<point x="121" y="740" type="line"/>
			<point x="107" y="543" type="line"/>
			<point x="107" y="170" type="line" smooth="yes"/>
			<point x="107" y="44"/>
			<point x="172" y="-9"/>
		</contour>
		<contour>
			<point x="5" y="476" type="line"/>
			<point x="358" y="476" type="line"/>
			<point x="358" y="543" type="line"/>
			<point x="5" y="543" type="line"/>
		</contour>
	</outline>
	<anchor name="stroke" x="107" y="317"/>
	<anchor name="top" x="147" y="745"/>
	<anchor name="topright" x="349" y="808"/>
	<anchor name="caronalt" x="275" y="808"/>
	<anchor name="bottom" x="237" y="0"/>
</glyph>
<glyph name="v" format="2">
	<unicode hex="0076"/>
	<advance width="529"/>
	<outline>
		<contour>
			<point x="213" y="0" type="line"/>
			<point x="316" y="0" type="line"/>
			<point x="521" y="543" type="line"/>
			<point x="440" y="543" type="line"/>
			<point x="261" y="58" type="line"/>
			<point x="272" y="58" type="line"/>
			<point x="93" y="543" type="line"/>
			<point x="8" y="543" type="line"/>
		</contour>
	</outline>
	<anchor name="top" x="265" y="600"/>
	<anchor name="bottom" x="265" y="0"/>
</glyph>
<glyph name="cross" format="2">
	<advance width="656"/>
	<unicode hex="271D"/>
	<outline>
		<contour>
			<point x="331" y="368" type="curve" smooth="yes"/>
			<point x="323" y="368"/>
			<point x="312" y="369"/>
			<point x="299" y="372" type="curve"/>
			<point x="299" y="435" type="line"/>
			<point x="235" y="435" type="line"/>
			<point x="232" y="450"/>
			<point x="230" y="461"/>
			<point x="230" y="466" type="curve" smooth="yes"/>
			<point x="230" y="471"/>
			<point x="232" y="482"/>
			<point x="237" y="500" type="curve"/>
			<point x="298" y="500" type="line"/>
			<point x="298" y="558" type="line"/>
			<point x="308" y="561"/>
			<point x="319" y="562"/>
			<point x="331" y="562" type="curve" smooth="yes"/>
			<point x="342" y="562"/>
			<point x="353" y="561"/>
			<point x="363" y="558" type="curve"/>
			<point x="363" y="500" type="line"/>
			<point x="425" y="500" type="line"/>
			<point x="430" y="487"/>
			<point x="432" y="477"/>
			<point x="432" y="472" type="curve" smooth="yes"/>
			<point x="432" y="467"/>
			<point x="432" y="462"/>
			<point x="431" y="457" type="curve" smooth="yes"/>
			<point x="428" y="436" type="line"/>
			<point x="363" y="436" type="line"/>
			<point x="363" y="374" type="line"/>
			<point x="350" y="370"/>
			<point x="339" y="368"/>
		</contour>
		<contour>
			<point x="331" y="363" type="curve" smooth="yes"/>
			<point x="391" y="363"/>
			<point x="437" y="406"/>
			<point x="437" y="466" type="curve" smooth="yes"/>
			<point x="437" y="526"/>
			<point x="391" y="569"/>
			<point x="331" y="569" type="curve" smooth="yes"/>
			<point x="274" y="569"/>
			<point x="224" y="523"/>
			<point x="224" y="465" type="curve" smooth="yes"/>
			<point x="224" y="406"/>
			<point x="272" y="363"/>
		</contour>
		<contour>
			<point x="263" y="87" type="curve" smooth="yes"/>
			<point x="263" y="105"/>
			<point x="279" y="122"/>
			<point x="298" y="121" type="curve"/>
			<point x="299" y="124" type="line"/>
			<point x="299" y="346" type="line"/>
			<point x="304" y="343"/>
			<point x="314" y="342"/>
			<point x="331" y="342" type="curve"/>
			<point x="357" y="345" type="line"/>
			<point x="363" y="345" type="line"/>
			<point x="363" y="121" type="line"/>
			<point x="384" y="116"/>
			<point x="394" y="105"/>
			<point x="394" y="87" type="curve" smooth="yes"/>
			<point x="394" y="69"/>
			<point x="383" y="65"/>
			<point x="374" y="56" type="curve" smooth="yes"/>
			<point x="373" y="51"/>
			<point x="370" y="43"/>
			<point x="367" y="33" type="curve"/>
			<point x="358" y="20"/>
			<point x="347" y="14"/>
			<point x="332" y="14" type="curve" smooth="yes"/>
			<point x="305" y="14"/>
			<point x="292" y="27"/>
			<point x="291" y="54" type="curve"/>
			<point x="272" y="59"/>
			<point x="263" y="70"/>
		</contour>
		<contour>
			<point x="207" y="436" type="curve"/>
			<point x="121" y="436" type="line"/>
			<point x="118" y="413"/>
			<point x="107" y="402"/>
			<point x="86" y="402" type="curve" smooth="yes"/>
			<point x="80" y="402"/>
			<point x="73" y="405"/>
			<point x="64" y="410" type="curve" smooth="yes"/>
			<point x="63" y="413"/>
			<point x="60" y="417"/>
			<point x="55" y="421" type="curve" smooth="yes"/>
			<point x="31" y="428"/>
			<point x="17" y="440"/>
			<point x="13" y="455" type="curve"/>
			<point x="13" y="464" type="line" smooth="yes"/>
			<point x="13" y="488"/>
			<point x="26" y="502"/>
			<point x="52" y="506" type="curve"/>
			<point x="62" y="523"/>
			<point x="74" y="532"/>
			<point x="87" y="532" type="curve" smooth="yes"/>
			<point x="108" y="532"/>
			<point x="120" y="521"/>
			<point x="121" y="500" type="curve"/>
			<point x="207" y="500" type="line"/>
			<point x="205" y="486"/>
			<point x="204" y="474"/>
			<point x="204" y="463" type="curve" smooth="yes"/>
			<point x="204" y="452"/>
			<point x="205" y="443"/>
		</contour>
		<contour>
			<point x="332" y="348" type="curve" smooth="yes"/>
			<point x="264" y="348"/>
			<point x="210" y="398"/>
			<point x="210" y="465" type="curve" smooth="yes"/>
			<point x="210" y="531"/>
			<point x="265" y="583"/>
			<point x="332" y="583" type="curve" smooth="yes"/>
			<point x="398" y="583"/>
			<point x="453" y="531"/>
			<point x="453" y="465" type="curve" smooth="yes"/>
			<point x="453" y="398"/>
			<point x="399" y="348"/>
		</contour>
		<contour>
			<point x="394" y="704" type="curve" smooth="yes"/>
			<point x="394" y="683"/>
			<point x="384" y="672"/>
			<point x="363" y="671" type="curve"/>
			<point x="363" y="585" type="line"/>
			<point x="354" y="588"/>
			<point x="344" y="589"/>
			<point x="331" y="589" type="curve" smooth="yes"/>
			<point x="318" y="589"/>
			<point x="308" y="588"/>
			<point x="299" y="585" type="curve"/>
			<point x="299" y="670" type="line"/>
			<point x="275" y="673"/>
			<point x="263" y="684"/>
			<point x="263" y="704" type="curve" smooth="yes"/>
			<point x="263" y="722"/>
			<point x="272" y="733"/>
			<point x="290" y="736" type="curve"/>
			<point x="293" y="763"/>
			<point x="307" y="777"/>
			<point x="332" y="777" type="curve" smooth="yes"/>
			<point x="347" y="777"/>
			<point x="359" y="771"/>
			<point x="367" y="758" type="curve"/>
			<point x="374" y="735" type="line" smooth="yes"/>
			<point x="375" y="734"/>
			<point x="377" y="732"/>
			<point x="380" y="731" type="curve" smooth="yes"/>
			<point x="389" y="726"/>
			<point x="394" y="717"/>
		</contour>
		<contour>
			<point x="643" y="464" type="curve" smooth="yes"/>
			<point x="643" y="441"/>
			<point x="629" y="428"/>
			<point x="604" y="423" type="curve"/>
			<point x="590" y="409"/>
			<point x="579" y="402"/>
			<point x="571" y="402" type="curve" smooth="yes"/>
			<point x="550" y="402"/>
			<point x="539" y="413"/>
			<point x="536" y="436" type="curve"/>
			<point x="453" y="436" type="line"/>
			<point x="456" y="441"/>
			<point x="458" y="449"/>
			<point x="458" y="460" type="curve" smooth="yes"/>
			<point x="458" y="471"/>
			<point x="457" y="485"/>
			<point x="455" y="500" type="curve"/>
			<point x="536" y="500" type="line"/>
			<point x="539" y="521"/>
			<point x="550" y="532"/>
			<point x="569" y="532" type="curve" smooth="yes"/>
			<point x="591" y="532"/>
			<point x="597" y="521"/>
			<point x="604" y="506" type="curve"/>
			<point x="630" y="502"/>
			<point x="643" y="488"/>
		</contour>
	</outline>
</glyph>
<glyph name="ls-lkflaglion" format="2">
	<advance width="879"/>
	<unicode hex="E000"/>
	<outline>
		<contour>
			<point x="723" y="50" type="curve"/>
			<point x="711" y="45"/>
			<point x="682" y="41"/>
			<point x="674" y="19" type="curve"/>
			<point x="677" y="28"/>
			<point x="677" y="33"/>
			<point x="672" y="44" type="curve" smooth="yes"/>
			<point x="654" y="83"/>
			<point x="707" y="93"/>
			<point x="698" y="122" type="curve"/>
			<point x="695" y="115"/>
			<point x="678" y="112"/>
			<point x="671" y="123" type="curve"/>
			<point x="657" y="141"/>
			<point x="673" y="148"/>
			<point x="681" y="161" type="curve"/>
			<point x="706" y="143"/>
			<point x="735" y="130"/>
			<point x="736" y="106" type="curve" smooth="yes"/>
			<point x="737" y="90"/>
			<point x="737" y="75"/>
			<point x="737" y="67" type="curve" smooth="yes"/>
			<point x="737" y="57"/>
			<point x="735" y="51"/>
		</contour>
		<contour>
			<point x="80" y="318" type="line"/>
			<point x="73" y="318"/>
			<point x="69" y="314"/>
			<point x="69" y="310" type="curve" smooth="yes"/>
			<point x="69" y="308"/>
			<point x="69" y="305"/>
			<point x="70" y="301" type="curve"/>
			<point x="66" y="301"/>
			<point x="65" y="301"/>
			<point x="65" y="296" type="curve"/>
			<point x="64" y="286"/>
			<point x="69" y="283"/>
			<point x="75" y="280" type="curve"/>
			<point x="71" y="279"/>
			<point x="70" y="278"/>
			<point x="70" y="274" type="curve" smooth="yes"/>
			<point x="70" y="266"/>
			<point x="73" y="262"/>
			<point x="78" y="261" type="curve"/>
			<point x="75" y="261"/>
			<point x="73" y="258"/>
			<point x="73" y="255" type="curve" smooth="yes"/>
			<point x="73" y="248"/>
			<point x="75" y="245"/>
			<point x="81" y="242" type="curve"/>
			<point x="81" y="235"/>
			<point x="81" y="230"/>
			<point x="81" y="229" type="curve"/>
			<point x="73" y="225"/>
			<point x="67" y="242"/>
			<point x="58" y="229" type="curve"/>
			<point x="53" y="219"/>
			<point x="69" y="208"/>
			<point x="81" y="216" type="curve"/>
			<point x="81" y="207"/>
			<point x="75" y="197"/>
			<point x="67" y="194" type="curve"/>
			<point x="82" y="182"/>
			<point x="86" y="157"/>
			<point x="67" y="148" type="curve"/>
			<point x="70" y="155"/>
			<point x="57" y="166"/>
			<point x="49" y="155" type="curve"/>
			<point x="44" y="144"/>
			<point x="60" y="130"/>
			<point x="75" y="130" type="curve"/>
			<point x="75" y="126"/>
			<point x="67" y="119"/>
			<point x="60" y="115" type="curve"/>
			<point x="64" y="114"/>
			<point x="75" y="110"/>
			<point x="81" y="112" type="curve"/>
			<point x="82" y="101"/>
			<point x="83" y="94"/>
			<point x="92" y="88" type="curve"/>
			<point x="99" y="94"/>
			<point x="103" y="101"/>
			<point x="103" y="112" type="curve"/>
			<point x="109" y="110"/>
			<point x="120" y="114"/>
			<point x="124" y="115" type="curve"/>
			<point x="116" y="119"/>
			<point x="108" y="126"/>
			<point x="108" y="130" type="curve"/>
			<point x="124" y="130"/>
			<point x="142" y="144"/>
			<point x="134" y="155" type="curve"/>
			<point x="126" y="166"/>
			<point x="112" y="155"/>
			<point x="118" y="148" type="curve"/>
			<point x="99" y="157"/>
			<point x="99" y="182"/>
			<point x="116" y="194" type="curve"/>
			<point x="109" y="197"/>
			<point x="103" y="207"/>
			<point x="103" y="217" type="curve"/>
			<point x="109" y="220"/>
			<point x="116" y="203"/>
			<point x="124" y="217" type="curve" smooth="yes"/>
			<point x="130" y="228"/>
			<point x="113" y="236"/>
			<point x="103" y="229" type="curve"/>
			<point x="103" y="230"/>
			<point x="103" y="232"/>
			<point x="103" y="236" type="curve"/>
			<point x="105" y="236"/>
			<point x="109" y="236"/>
			<point x="111" y="238" type="curve"/>
			<point x="118" y="235"/>
			<point x="124" y="238"/>
			<point x="124" y="241" type="curve"/>
			<point x="136" y="236"/>
			<point x="142" y="230"/>
			<point x="137" y="215" type="curve"/>
			<point x="135" y="192"/>
			<point x="139" y="185"/>
			<point x="148" y="173" type="curve"/>
			<point x="147" y="182"/>
			<point x="154" y="197"/>
			<point x="169" y="185" type="curve"/>
			<point x="184" y="170"/>
			<point x="207" y="117"/>
			<point x="253" y="181" type="curve"/>
			<point x="266" y="170"/>
			<point x="284" y="160"/>
			<point x="302" y="153" type="curve"/>
			<point x="313" y="118"/>
			<point x="327" y="88"/>
			<point x="315" y="67" type="curve"/>
			<point x="289" y="17"/>
			<point x="244" y="88"/>
			<point x="230" y="7" type="curve"/>
			<point x="244" y="7"/>
			<point x="246" y="12"/>
			<point x="252" y="17" type="curve"/>
			<point x="256" y="8"/>
			<point x="257" y="7"/>
			<point x="266" y="7" type="curve" smooth="yes"/>
			<point x="278" y="7"/>
			<point x="282" y="8"/>
			<point x="286" y="17" type="curve"/>
			<point x="291" y="8"/>
			<point x="294" y="7"/>
			<point x="307" y="7" type="curve" smooth="yes"/>
			<point x="320" y="7"/>
			<point x="321" y="14"/>
			<point x="326" y="17" type="curve"/>
			<point x="329" y="13"/>
			<point x="329" y="7"/>
			<point x="356" y="7" type="curve"/>
			<point x="368" y="26"/>
			<point x="371" y="33"/>
			<point x="364" y="44" type="curve"/>
			<point x="359" y="56"/>
			<point x="359" y="63"/>
			<point x="375" y="67" type="curve" smooth="yes"/>
			<point x="391" y="71"/>
			<point x="409" y="82"/>
			<point x="413" y="105" type="curve"/>
			<point x="397" y="100"/>
			<point x="364" y="106"/>
			<point x="379" y="132" type="curve"/>
			<point x="384" y="141"/>
			<point x="392" y="154"/>
			<point x="401" y="170" type="curve"/>
			<point x="444" y="180"/>
			<point x="495" y="225"/>
			<point x="566" y="225" type="curve"/>
			<point x="554" y="174"/>
			<point x="623" y="143"/>
			<point x="617" y="101" type="curve" smooth="yes"/>
			<point x="614" y="80"/>
			<point x="620" y="68"/>
			<point x="617" y="56" type="curve"/>
			<point x="614" y="45"/>
			<point x="604" y="40"/>
			<point x="584" y="41" type="curve"/>
			<point x="564" y="44"/>
			<point x="546" y="30"/>
			<point x="546" y="7" type="curve"/>
			<point x="555" y="7"/>
			<point x="565" y="8"/>
			<point x="573" y="19" type="curve"/>
			<point x="577" y="12"/>
			<point x="577" y="7"/>
			<point x="588" y="7" type="curve" smooth="yes"/>
			<point x="602" y="7"/>
			<point x="602" y="13"/>
			<point x="606" y="19" type="curve"/>
			<point x="608" y="13"/>
			<point x="608" y="6"/>
			<point x="620" y="6" type="curve" smooth="yes"/>
			<point x="634" y="6"/>
			<point x="634" y="8"/>
			<point x="639" y="17" type="curve"/>
			<point x="646" y="8"/>
			<point x="652" y="7"/>
			<point x="669" y="7" type="curve"/>
			<point x="672" y="12"/>
			<point x="673" y="14"/>
			<point x="673" y="17" type="curve"/>
			<point x="673" y="14"/>
			<point x="672" y="12"/>
			<point x="672" y="7" type="curve"/>
			<point x="684" y="7"/>
			<point x="690" y="12"/>
			<point x="695" y="19" type="curve"/>
			<point x="699" y="12"/>
			<point x="699" y="7"/>
			<point x="711" y="7" type="curve" smooth="yes"/>
			<point x="720" y="7"/>
			<point x="724" y="8"/>
			<point x="729" y="19" type="curve"/>
			<point x="733" y="12"/>
			<point x="737" y="7"/>
			<point x="748" y="7" type="curve" smooth="yes"/>
			<point x="761" y="7"/>
			<point x="761" y="12"/>
			<point x="766" y="19" type="curve"/>
			<point x="771" y="8"/>
			<point x="774" y="7"/>
			<point x="797" y="7" type="curve"/>
			<point x="810" y="20"/>
			<point x="778" y="32"/>
			<point x="780" y="59" type="curve" smooth="yes"/>
			<point x="782" y="84"/>
			<point x="809" y="83"/>
			<point x="814" y="106" type="curve"/>
			<point x="818" y="115"/>
			<point x="813" y="118"/>
			<point x="804" y="118" type="curve" smooth="yes"/>
			<point x="792" y="118"/>
			<point x="769" y="159"/>
			<point x="788" y="220" type="curve" smooth="yes"/>
			<point x="808" y="284"/>
			<point x="834" y="348"/>
			<point x="782" y="408" type="curve"/>
			<point x="834" y="437"/>
			<point x="821" y="500"/>
			<point x="785" y="517" type="curve" smooth="yes"/>
			<point x="747" y="535"/>
			<point x="706" y="523"/>
			<point x="673" y="518" type="curve" smooth="yes"/>
			<point x="640" y="513"/>
			<point x="593" y="516"/>
			<point x="601" y="547" type="curve"/>
			<point x="591" y="551"/>
			<point x="577" y="540"/>
			<point x="576" y="527" type="curve"/>
			<point x="563" y="540"/>
			<point x="555" y="566"/>
			<point x="590" y="572" type="curve"/>
			<point x="590" y="586"/>
			<point x="553" y="592"/>
			<point x="538" y="563" type="curve"/>
			<point x="520" y="573"/>
			<point x="519" y="588"/>
			<point x="525" y="601" type="curve"/>
			<point x="531" y="616"/>
			<point x="564" y="624"/>
			<point x="564" y="601" type="curve"/>
			<point x="575" y="603"/>
			<point x="580" y="624"/>
			<point x="575" y="631" type="curve"/>
			<point x="568" y="637"/>
			<point x="580" y="636"/>
			<point x="590" y="631" type="curve" smooth="yes"/>
			<point x="615" y="618"/>
			<point x="627" y="592"/>
			<point x="601" y="563" type="curve"/>
			<point x="633" y="563"/>
			<point x="660" y="597"/>
			<point x="635" y="629" type="curve"/>
			<point x="664" y="620"/>
			<point x="681" y="594"/>
			<point x="655" y="563" type="curve"/>
			<point x="672" y="560"/>
			<point x="688" y="572"/>
			<point x="691" y="593" type="curve"/>
			<point x="699" y="573"/>
			<point x="723" y="556"/>
			<point x="744" y="560" type="curve"/>
			<point x="718" y="569"/>
			<point x="732" y="589"/>
			<point x="721" y="597" type="curve"/>
			<point x="766" y="567"/>
			<point x="761" y="550"/>
			<point x="801" y="540" type="curve" smooth="yes"/>
			<point x="826" y="534"/>
			<point x="846" y="554"/>
			<point x="837" y="577" type="curve"/>
			<point x="830" y="605"/>
			<point x="793" y="590"/>
			<point x="804" y="566" type="curve"/>
			<point x="793" y="560"/>
			<point x="761" y="597"/>
			<point x="745" y="606" type="curve" smooth="yes"/>
			<point x="689" y="637"/>
			<point x="664" y="667"/>
			<point x="597" y="667" type="curve" smooth="yes"/>
			<point x="531" y="667"/>
			<point x="455" y="610"/>
			<point x="519" y="538" type="curve"/>
			<point x="508" y="526"/>
			<point x="499" y="504"/>
			<point x="528" y="479" type="curve"/>
			<point x="525" y="491"/>
			<point x="528" y="524"/>
			<point x="559" y="504" type="curve" smooth="yes"/>
			<point x="590" y="484"/>
			<point x="646" y="485"/>
			<point x="704" y="499" type="curve" smooth="yes"/>
			<point x="759" y="512"/>
			<point x="785" y="491"/>
			<point x="785" y="465" type="curve" smooth="yes"/>
			<point x="785" y="429"/>
			<point x="748" y="427"/>
			<point x="732" y="421" type="curve"/>
			<point x="699" y="408"/>
			<point x="656" y="424"/>
			<point x="618" y="414" type="curve"/>
			<point x="575" y="403"/>
			<point x="519" y="419"/>
			<point x="486" y="411" type="curve"/>
			<point x="483" y="412"/>
			<point x="482" y="415"/>
			<point x="481" y="419" type="curve"/>
			<point x="482" y="419"/>
			<point x="483" y="420"/>
			<point x="487" y="420" type="curve"/>
			<point x="478" y="421"/>
			<point x="468" y="441"/>
			<point x="470" y="458" type="curve"/>
			<point x="479" y="452"/>
			<point x="487" y="446"/>
			<point x="486" y="441" type="curve"/>
			<point x="491" y="458"/>
			<point x="475" y="467"/>
			<point x="478" y="491" type="curve"/>
			<point x="482" y="488"/>
			<point x="483" y="485"/>
			<point x="486" y="482" type="curve"/>
			<point x="482" y="491"/>
			<point x="490" y="516"/>
			<point x="486" y="529" type="curve"/>
			<point x="486" y="531"/>
			<point x="486" y="531"/>
			<point x="486" y="529" type="curve"/>
			<point x="489" y="547"/>
			<point x="491" y="573"/>
			<point x="474" y="592" type="curve"/>
			<point x="490" y="610"/>
			<point x="499" y="625"/>
			<point x="495" y="645" type="curve"/>
			<point x="487" y="624"/>
			<point x="465" y="619"/>
			<point x="456" y="631" type="curve"/>
			<point x="452" y="640"/>
			<point x="438" y="648"/>
			<point x="418" y="652" type="curve"/>
			<point x="425" y="640"/>
			<point x="412" y="632"/>
			<point x="413" y="624" type="curve"/>
			<point x="396" y="657"/>
			<point x="375" y="645"/>
			<point x="364" y="654" type="curve"/>
			<point x="375" y="640"/>
			<point x="367" y="614"/>
			<point x="354" y="631" type="curve"/>
			<point x="340" y="651"/>
			<point x="304" y="632"/>
			<point x="303" y="641" type="curve"/>
			<point x="300" y="636"/>
			<point x="311" y="629"/>
			<point x="304" y="620" type="curve"/>
			<point x="286" y="594"/>
			<point x="273" y="611"/>
			<point x="256" y="601" type="curve"/>
			<point x="244" y="594"/>
			<point x="227" y="599"/>
			<point x="218" y="593" type="curve"/>
			<point x="228" y="603"/>
			<point x="218" y="627"/>
			<point x="200" y="624" type="curve"/>
			<point x="175" y="620"/>
			<point x="178" y="597"/>
			<point x="184" y="588" type="curve" smooth="yes"/>
			<point x="191" y="578"/>
			<point x="180" y="569"/>
			<point x="202" y="550" type="curve"/>
			<point x="223" y="535"/>
			<point x="217" y="524"/>
			<point x="243" y="516" type="curve"/>
			<point x="239" y="522"/>
			<point x="243" y="527"/>
			<point x="239" y="535" type="curve"/>
			<point x="246" y="517"/>
			<point x="260" y="518"/>
			<point x="262" y="512" type="curve"/>
			<point x="260" y="518"/>
			<point x="260" y="527"/>
			<point x="265" y="535" type="curve"/>
			<point x="266" y="516"/>
			<point x="283" y="509"/>
			<point x="294" y="491" type="curve"/>
			<point x="260" y="491"/>
			<point x="228" y="504"/>
			<point x="206" y="516" type="curve"/>
			<point x="185" y="529"/>
			<point x="180" y="522"/>
			<point x="185" y="510" type="curve"/>
			<point x="185" y="505"/>
			<point x="190" y="501"/>
			<point x="197" y="499" type="curve"/>
			<point x="181" y="485"/>
			<point x="188" y="461"/>
			<point x="175" y="452" type="curve"/>
			<point x="184" y="457"/>
			<point x="201" y="450"/>
			<point x="217" y="461" type="curve"/>
			<point x="211" y="458"/>
			<point x="218" y="448"/>
			<point x="205" y="442" type="curve"/>
			<point x="215" y="441"/>
			<point x="224" y="442"/>
			<point x="235" y="452" type="curve"/>
			<point x="240" y="434"/>
			<point x="249" y="437"/>
			<point x="252" y="429" type="curve"/>
			<point x="251" y="436"/>
			<point x="257" y="446"/>
			<point x="256" y="452" type="curve"/>
			<point x="262" y="446"/>
			<point x="257" y="432"/>
			<point x="275" y="421" type="curve"/>
			<point x="272" y="431"/>
			<point x="286" y="445"/>
			<point x="294" y="440" type="curve"/>
			<point x="302" y="434"/>
			<point x="299" y="419"/>
			<point x="278" y="410" type="curve" smooth="yes"/>
			<point x="219" y="385"/>
			<point x="185" y="310"/>
			<point x="205" y="248" type="curve"/>
			<point x="185" y="271"/>
			<point x="155" y="300"/>
			<point x="131" y="323" type="curve"/>
			<point x="159" y="336"/>
			<point x="151" y="364"/>
			<point x="134" y="369" type="curve"/>
			<point x="130" y="370"/>
			<point x="124" y="370"/>
			<point x="121" y="370" type="curve"/>
			<point x="124" y="561"/>
			<point x="132" y="699"/>
			<point x="155" y="714" type="curve"/>
			<point x="64" y="667"/>
			<point x="69" y="556"/>
			<point x="69" y="369" type="curve"/>
			<point x="66" y="370"/>
			<point x="61" y="372"/>
			<point x="57" y="369" type="curve"/>
			<point x="34" y="363"/>
			<point x="28" y="326"/>
			<point x="80" y="321" type="curve"/>
		</contour>
		<contour>
			<point x="486" y="529" type="curve" smooth="yes"/>
			<point x="486" y="529"/>
			<point x="486" y="529"/>
			<point x="486" y="529" type="curve" smooth="yes"/>
			<point x="486" y="529"/>
			<point x="486" y="529"/>
		</contour>
		<contour>
			<point x="253" y="181" type="curve"/>
			<point x="252" y="178" type="line"/>
			<point x="224" y="197"/>
			<point x="210" y="225"/>
			<point x="201" y="249" type="curve"/>
			<point x="202" y="251" type="line"/>
			<point x="205" y="249" type="line"/>
			<point x="211" y="224"/>
			<point x="227" y="202"/>
		</contour>
		<contour>
			<point x="302" y="153" type="curve"/>
			<point x="299" y="154" type="line"/>
			<point x="291" y="181"/>
			<point x="286" y="210"/>
			<point x="298" y="241" type="curve"/>
			<point x="300" y="241" type="line"/>
			<point x="288" y="210"/>
			<point x="295" y="180"/>
		</contour>
		<contour>
			<point x="566" y="223" type="curve"/>
			<point x="566" y="225" type="line"/>
			<point x="602" y="225"/>
			<point x="623" y="217"/>
			<point x="645" y="192" type="curve"/>
			<point x="655" y="180"/>
			<point x="668" y="170"/>
			<point x="681" y="161" type="curve"/>
			<point x="678" y="159" type="line"/>
			<point x="664" y="168"/>
			<point x="651" y="176"/>
			<point x="642" y="189" type="curve" smooth="yes"/>
			<point x="624" y="215"/>
			<point x="604" y="223"/>
		</contour>
		<contour>
			<point x="430" y="280" type="curve"/>
			<point x="435" y="280" type="line"/>
			<point x="444" y="251"/>
			<point x="424" y="204"/>
			<point x="404" y="170" type="curve"/>
			<point x="401" y="170" type="line"/>
			<point x="422" y="204"/>
			<point x="441" y="251"/>
		</contour>
		<contour>
			<point x="131" y="323" type="curve"/>
			<point x="133" y="321" type="line"/>
			<point x="124" y="319"/>
			<point x="111" y="317"/>
			<point x="96" y="317" type="curve" smooth="yes"/>
			<point x="91" y="317"/>
			<point x="86" y="318"/>
			<point x="80" y="318" type="curve"/>
			<point x="80" y="321" type="line"/>
			<point x="83" y="321"/>
			<point x="91" y="320"/>
			<point x="96" y="320" type="curve" smooth="yes"/>
			<point x="111" y="320"/>
			<point x="122" y="321"/>
		</contour>
		<contour>
			<point x="69" y="369" type="curve"/>
			<point x="69" y="370" type="line"/>
			<point x="81" y="365"/>
			<point x="79" y="348"/>
			<point x="69" y="348" type="curve"/>
			<point x="70" y="350" type="line"/>
			<point x="73" y="339"/>
			<point x="86" y="338"/>
			<point x="94" y="338" type="curve" smooth="yes"/>
			<point x="104" y="338"/>
			<point x="117" y="339"/>
			<point x="118" y="350" type="curve"/>
			<point x="120" y="348" type="line"/>
			<point x="109" y="348"/>
			<point x="109" y="369"/>
			<point x="121" y="373" type="curve"/>
			<point x="121" y="370" type="line"/>
			<point x="113" y="368"/>
			<point x="112" y="351"/>
			<point x="120" y="351" type="curve"/>
			<point x="121" y="350" type="line"/>
			<point x="118" y="338"/>
			<point x="104" y="336"/>
			<point x="94" y="336" type="curve" smooth="yes"/>
			<point x="86" y="336"/>
			<point x="70" y="338"/>
			<point x="67" y="350" type="curve"/>
			<point x="69" y="351" type="line"/>
			<point x="78" y="351"/>
			<point x="75" y="364"/>
		</contour>
		<contour>
			<point x="73" y="301" type="curve"/>
			<point x="75" y="305" type="line"/>
			<point x="78" y="300"/>
			<point x="83" y="300"/>
			<point x="87" y="299" type="curve"/>
			<point x="91" y="299"/>
			<point x="92" y="296"/>
			<point x="93" y="296" type="curve" smooth="yes"/>
			<point x="93" y="296"/>
			<point x="94" y="296"/>
			<point x="96" y="296" type="curve"/>
			<point x="99" y="296"/>
			<point x="105" y="294"/>
			<point x="108" y="296" type="curve"/>
			<point x="113" y="291"/>
			<point x="120" y="296"/>
			<point x="121" y="299" type="curve"/>
			<point x="124" y="300"/>
			<point x="124" y="300"/>
			<point x="124" y="300" type="curve"/>
			<point x="125" y="305"/>
			<point x="130" y="306"/>
			<point x="125" y="313" type="curve"/>
			<point x="130" y="313" type="line"/>
			<point x="126" y="310"/>
			<point x="124" y="308"/>
			<point x="120" y="306" type="curve"/>
			<point x="118" y="305"/>
			<point x="116" y="301"/>
			<point x="113" y="301" type="curve"/>
			<point x="112" y="301" type="line"/>
			<point x="111" y="308"/>
			<point x="107" y="308"/>
			<point x="99" y="310" type="curve"/>
			<point x="97" y="310"/>
			<point x="96" y="310"/>
			<point x="94" y="310" type="curve"/>
			<point x="87" y="313"/>
			<point x="83" y="313"/>
			<point x="81" y="313" type="curve"/>
			<point x="81" y="317" type="line"/>
			<point x="86" y="317"/>
			<point x="87" y="314"/>
			<point x="94" y="313" type="curve"/>
			<point x="97" y="312"/>
			<point x="97" y="312"/>
			<point x="99" y="312" type="curve"/>
			<point x="108" y="310"/>
			<point x="112" y="308"/>
			<point x="113" y="301" type="curve"/>
			<point x="112" y="305" type="line"/>
			<point x="113" y="306"/>
			<point x="118" y="308"/>
			<point x="118" y="308" type="curve"/>
			<point x="124" y="310"/>
			<point x="124" y="310"/>
			<point x="125" y="313" type="curve"/>
			<point x="130" y="313" type="line"/>
			<point x="132" y="306"/>
			<point x="130" y="301"/>
			<point x="124" y="300" type="curve"/>
			<point x="124" y="299"/>
			<point x="124" y="296"/>
			<point x="124" y="296" type="curve"/>
			<point x="124" y="294"/>
			<point x="113" y="288"/>
			<point x="108" y="293" type="curve"/>
			<point x="104" y="291"/>
			<point x="99" y="293"/>
			<point x="94" y="294" type="curve"/>
			<point x="93" y="296"/>
			<point x="93" y="296"/>
			<point x="93" y="296" type="curve" smooth="yes"/>
			<point x="92" y="296"/>
			<point x="91" y="296"/>
			<point x="87" y="296" type="curve"/>
			<point x="82" y="296"/>
			<point x="78" y="300"/>
		</contour>
		<contour>
			<point x="73" y="283" type="curve"/>
			<point x="75" y="284" type="line"/>
			<point x="75" y="283"/>
			<point x="82" y="280"/>
			<point x="87" y="279" type="curve"/>
			<point x="87" y="279"/>
			<point x="91" y="278"/>
			<point x="92" y="278" type="curve" smooth="yes"/>
			<point x="92" y="278"/>
			<point x="92" y="278"/>
			<point x="93" y="275" type="curve"/>
			<point x="97" y="275"/>
			<point x="103" y="275"/>
			<point x="107" y="275" type="curve"/>
			<point x="109" y="272"/>
			<point x="116" y="275"/>
			<point x="118" y="279" type="curve"/>
			<point x="118" y="280"/>
			<point x="120" y="280"/>
			<point x="120" y="283" type="curve"/>
			<point x="124" y="284"/>
			<point x="124" y="286"/>
			<point x="124" y="293" type="curve"/>
			<point x="124" y="293" type="line"/>
			<point x="124" y="291"/>
			<point x="120" y="289"/>
			<point x="116" y="286" type="curve"/>
			<point x="113" y="284"/>
			<point x="112" y="283"/>
			<point x="111" y="283" type="curve"/>
			<point x="108" y="283" type="line"/>
			<point x="107" y="288"/>
			<point x="105" y="289"/>
			<point x="97" y="291" type="curve"/>
			<point x="94" y="291"/>
			<point x="93" y="291"/>
			<point x="92" y="291" type="curve"/>
			<point x="87" y="293"/>
			<point x="82" y="293"/>
			<point x="80" y="293" type="curve"/>
			<point x="80" y="296" type="line"/>
			<point x="83" y="296"/>
			<point x="87" y="294"/>
			<point x="92" y="293" type="curve"/>
			<point x="94" y="291"/>
			<point x="96" y="291"/>
			<point x="97" y="291" type="curve"/>
			<point x="107" y="291"/>
			<point x="108" y="289"/>
			<point x="111" y="283" type="curve"/>
			<point x="108" y="284" type="line"/>
			<point x="111" y="286"/>
			<point x="113" y="288"/>
			<point x="113" y="289" type="curve"/>
			<point x="118" y="291"/>
			<point x="121" y="291"/>
			<point x="124" y="293" type="curve"/>
			<point x="124" y="293" type="line"/>
			<point x="125" y="286"/>
			<point x="124" y="283"/>
			<point x="121" y="280" type="curve"/>
			<point x="120" y="279"/>
			<point x="120" y="278"/>
			<point x="120" y="278" type="curve"/>
			<point x="118" y="275"/>
			<point x="109" y="270"/>
			<point x="107" y="274" type="curve"/>
			<point x="99" y="274"/>
			<point x="97" y="274"/>
			<point x="92" y="275" type="curve"/>
			<point x="92" y="275"/>
			<point x="92" y="275"/>
			<point x="92" y="275" type="curve" smooth="yes"/>
			<point x="91" y="275"/>
			<point x="87" y="275"/>
			<point x="87" y="275" type="curve"/>
			<point x="81" y="278"/>
			<point x="75" y="280"/>
		</contour>
		<contour>
			<point x="75" y="266" type="curve"/>
			<point x="78" y="267" type="line"/>
			<point x="80" y="263"/>
			<point x="83" y="262"/>
			<point x="87" y="262" type="curve"/>
			<point x="87" y="262"/>
			<point x="91" y="261"/>
			<point x="92" y="261" type="curve" smooth="yes"/>
			<point x="92" y="261"/>
			<point x="93" y="261"/>
			<point x="94" y="259" type="curve"/>
			<point x="97" y="259"/>
			<point x="103" y="258"/>
			<point x="105" y="259" type="curve"/>
			<point x="109" y="257"/>
			<point x="113" y="259"/>
			<point x="116" y="262" type="curve"/>
			<point x="118" y="262"/>
			<point x="118" y="262"/>
			<point x="118" y="263" type="curve"/>
			<point x="120" y="267"/>
			<point x="124" y="268"/>
			<point x="120" y="274" type="curve"/>
			<point x="124" y="274" type="line"/>
			<point x="121" y="272"/>
			<point x="118" y="270"/>
			<point x="113" y="268" type="curve"/>
			<point x="113" y="267"/>
			<point x="111" y="266"/>
			<point x="109" y="266" type="curve"/>
			<point x="108" y="266" type="line"/>
			<point x="107" y="270"/>
			<point x="104" y="270"/>
			<point x="97" y="272" type="curve"/>
			<point x="96" y="272"/>
			<point x="94" y="272"/>
			<point x="93" y="272" type="curve"/>
			<point x="87" y="274"/>
			<point x="83" y="274"/>
			<point x="81" y="274" type="curve"/>
			<point x="81" y="278" type="line"/>
			<point x="86" y="278"/>
			<point x="87" y="275"/>
			<point x="93" y="274" type="curve"/>
			<point x="96" y="274"/>
			<point x="96" y="274"/>
			<point x="97" y="274" type="curve"/>
			<point x="105" y="272"/>
			<point x="108" y="270"/>
			<point x="109" y="266" type="curve"/>
			<point x="108" y="267" type="line"/>
			<point x="109" y="268"/>
			<point x="112" y="270"/>
			<point x="113" y="270" type="curve"/>
			<point x="118" y="272"/>
			<point x="118" y="272"/>
			<point x="120" y="274" type="curve"/>
			<point x="124" y="274" type="line"/>
			<point x="124" y="268"/>
			<point x="124" y="266"/>
			<point x="118" y="262" type="curve"/>
			<point x="118" y="262"/>
			<point x="118" y="261"/>
			<point x="118" y="261" type="curve"/>
			<point x="118" y="258"/>
			<point x="109" y="253"/>
			<point x="105" y="257" type="curve"/>
			<point x="99" y="257"/>
			<point x="97" y="257"/>
			<point x="93" y="258" type="curve"/>
			<point x="92" y="259"/>
			<point x="92" y="259"/>
			<point x="92" y="259" type="curve" smooth="yes"/>
			<point x="91" y="259"/>
			<point x="87" y="259"/>
			<point x="87" y="259" type="curve"/>
			<point x="82" y="261"/>
			<point x="80" y="262"/>
		</contour>
		<contour>
			<point x="71" y="109" type="curve"/>
			<point x="75" y="110" type="line"/>
			<point x="75" y="106"/>
			<point x="82" y="105"/>
			<point x="87" y="105" type="curve"/>
			<point x="87" y="105"/>
			<point x="91" y="104"/>
			<point x="92" y="104" type="curve" smooth="yes"/>
			<point x="92" y="104"/>
			<point x="93" y="104"/>
			<point x="94" y="101" type="curve"/>
			<point x="99" y="101"/>
			<point x="104" y="100"/>
			<point x="107" y="101" type="curve"/>
			<point x="112" y="96"/>
			<point x="118" y="101"/>
			<point x="120" y="105" type="curve"/>
			<point x="121" y="105"/>
			<point x="121" y="105"/>
			<point x="121" y="106" type="curve"/>
			<point x="124" y="110"/>
			<point x="126" y="112"/>
			<point x="124" y="119" type="curve"/>
			<point x="126" y="119" type="line"/>
			<point x="125" y="117"/>
			<point x="121" y="114"/>
			<point x="118" y="112" type="curve"/>
			<point x="118" y="110"/>
			<point x="113" y="109"/>
			<point x="112" y="106" type="curve"/>
			<point x="111" y="109" type="line"/>
			<point x="109" y="114"/>
			<point x="105" y="114"/>
			<point x="97" y="117" type="curve"/>
			<point x="96" y="117"/>
			<point x="94" y="117"/>
			<point x="93" y="117" type="curve"/>
			<point x="87" y="119"/>
			<point x="82" y="119"/>
			<point x="80" y="119" type="curve"/>
			<point x="80" y="122" type="line"/>
			<point x="83" y="122"/>
			<point x="87" y="121"/>
			<point x="93" y="119" type="curve"/>
			<point x="96" y="118"/>
			<point x="96" y="118"/>
			<point x="97" y="118" type="curve"/>
			<point x="107" y="117"/>
			<point x="111" y="114"/>
			<point x="112" y="109" type="curve"/>
			<point x="111" y="110" type="line"/>
			<point x="112" y="112"/>
			<point x="116" y="114"/>
			<point x="118" y="114" type="curve"/>
			<point x="121" y="117"/>
			<point x="124" y="117"/>
			<point x="124" y="119" type="curve"/>
			<point x="126" y="119" type="line"/>
			<point x="131" y="112"/>
			<point x="126" y="106"/>
			<point x="124" y="105" type="curve"/>
			<point x="121" y="105"/>
			<point x="121" y="104"/>
			<point x="121" y="104" type="curve"/>
			<point x="121" y="100"/>
			<point x="112" y="94"/>
			<point x="107" y="99" type="curve"/>
			<point x="103" y="96"/>
			<point x="97" y="99"/>
			<point x="93" y="100" type="curve"/>
			<point x="92" y="101"/>
			<point x="92" y="101"/>
			<point x="92" y="101" type="curve" smooth="yes"/>
			<point x="91" y="101"/>
			<point x="87" y="101"/>
			<point x="87" y="101" type="curve"/>
			<point x="81" y="104"/>
			<point x="75" y="105"/>
		</contour>
		<contour>
			<point x="75" y="250" type="curve"/>
			<point x="78" y="251" type="line"/>
			<point x="80" y="248"/>
			<point x="83" y="247"/>
			<point x="87" y="247" type="curve"/>
			<point x="87" y="247"/>
			<point x="91" y="246"/>
			<point x="92" y="246" type="curve" smooth="yes"/>
			<point x="92" y="246"/>
			<point x="93" y="246"/>
			<point x="94" y="245" type="curve"/>
			<point x="97" y="245"/>
			<point x="103" y="242"/>
			<point x="105" y="245" type="curve"/>
			<point x="109" y="241"/>
			<point x="113" y="245"/>
			<point x="116" y="247" type="curve"/>
			<point x="118" y="247"/>
			<point x="118" y="247"/>
			<point x="118" y="248" type="curve"/>
			<point x="120" y="251"/>
			<point x="124" y="253"/>
			<point x="120" y="259" type="curve"/>
			<point x="124" y="259" type="line"/>
			<point x="121" y="257"/>
			<point x="118" y="255"/>
			<point x="113" y="253" type="curve"/>
			<point x="113" y="251"/>
			<point x="111" y="250"/>
			<point x="109" y="248" type="curve"/>
			<point x="108" y="250" type="line"/>
			<point x="107" y="255"/>
			<point x="104" y="255"/>
			<point x="97" y="257" type="curve"/>
			<point x="96" y="257"/>
			<point x="94" y="257"/>
			<point x="93" y="257" type="curve"/>
			<point x="87" y="259"/>
			<point x="83" y="259"/>
			<point x="81" y="259" type="curve"/>
			<point x="81" y="262" type="line"/>
			<point x="86" y="262"/>
			<point x="87" y="261"/>
			<point x="93" y="259" type="curve"/>
			<point x="96" y="258"/>
			<point x="96" y="258"/>
			<point x="97" y="258" type="curve"/>
			<point x="105" y="257"/>
			<point x="108" y="255"/>
			<point x="109" y="250" type="curve"/>
			<point x="108" y="251" type="line"/>
			<point x="109" y="253"/>
			<point x="112" y="255"/>
			<point x="113" y="255" type="curve"/>
			<point x="118" y="257"/>
			<point x="118" y="257"/>
			<point x="120" y="259" type="curve"/>
			<point x="124" y="259" type="line"/>
			<point x="124" y="253"/>
			<point x="124" y="248"/>
			<point x="118" y="247" type="curve"/>
			<point x="118" y="247"/>
			<point x="118" y="246"/>
			<point x="118" y="246" type="curve"/>
			<point x="118" y="242"/>
			<point x="109" y="238"/>
			<point x="105" y="241" type="curve"/>
			<point x="99" y="241"/>
			<point x="97" y="241"/>
			<point x="93" y="242" type="curve"/>
			<point x="92" y="245"/>
			<point x="92" y="245"/>
			<point x="92" y="245" type="curve" smooth="yes"/>
			<point x="91" y="245"/>
			<point x="87" y="245"/>
			<point x="87" y="245" type="curve"/>
			<point x="82" y="246"/>
			<point x="80" y="247"/>
		</contour>
		<contour>
			<point x="275" y="381" type="line"/>
			<point x="285" y="382"/>
			<point x="286" y="390"/>
			<point x="288" y="398" type="curve"/>
			<point x="289" y="403"/>
			<point x="291" y="411"/>
			<point x="296" y="412" type="curve"/>
			<point x="298" y="410" type="line"/>
			<point x="295" y="408"/>
			<point x="294" y="403"/>
			<point x="291" y="398" type="curve"/>
			<point x="289" y="391"/>
			<point x="288" y="385"/>
			<point x="283" y="380" type="curve"/>
			<point x="291" y="380"/>
			<point x="302" y="386"/>
			<point x="304" y="390" type="curve"/>
			<point x="308" y="389" type="line"/>
			<point x="304" y="386"/>
			<point x="307" y="382"/>
			<point x="308" y="377" type="curve"/>
			<point x="309" y="373"/>
			<point x="311" y="366"/>
			<point x="310" y="357" type="curve"/>
			<point x="312" y="359"/>
			<point x="314" y="360"/>
			<point x="316" y="361" type="curve"/>
			<point x="324" y="363"/>
			<point x="333" y="368"/>
			<point x="336" y="394" type="curve"/>
			<point x="338" y="394" type="line"/>
			<point x="337" y="389"/>
			<point x="338" y="386"/>
			<point x="338" y="382" type="curve"/>
			<point x="341" y="378"/>
			<point x="344" y="372"/>
			<point x="342" y="364" type="curve"/>
			<point x="352" y="372"/>
			<point x="358" y="383"/>
			<point x="359" y="397" type="curve"/>
			<point x="363" y="395" type="line"/>
			<point x="362" y="391"/>
			<point x="364" y="387"/>
			<point x="368" y="382" type="curve"/>
			<point x="372" y="378"/>
			<point x="374" y="374"/>
			<point x="375" y="371" type="curve"/>
			<point x="379" y="376"/>
			<point x="380" y="383"/>
			<point x="383" y="391" type="curve"/>
			<point x="386" y="400"/>
			<point x="388" y="408"/>
			<point x="393" y="408" type="curve"/>
			<point x="396" y="406" type="line"/>
			<point x="393" y="401"/>
			<point x="395" y="393"/>
			<point x="401" y="382" type="curve" smooth="yes"/>
			<point x="405" y="375"/>
			<point x="409" y="366"/>
			<point x="408" y="359" type="curve"/>
			<point x="410" y="360"/>
			<point x="412" y="362"/>
			<point x="413" y="363" type="curve"/>
			<point x="419" y="368"/>
			<point x="427" y="372"/>
			<point x="430" y="382" type="curve"/>
			<point x="434" y="382" type="line"/>
			<point x="437" y="375"/>
			<point x="449" y="372"/>
			<point x="460" y="369" type="curve"/>
			<point x="463" y="369"/>
			<point x="466" y="369"/>
			<point x="468" y="368" type="curve"/>
			<point x="467" y="372"/>
			<point x="468" y="376"/>
			<point x="468" y="381" type="curve"/>
			<point x="469" y="386"/>
			<point x="470" y="390"/>
			<point x="467" y="395" type="curve"/>
			<point x="469" y="398" type="line"/>
			<point x="476" y="391"/>
			<point x="492" y="393"/>
			<point x="502" y="397" type="curve"/>
			<point x="494" y="400"/>
			<point x="488" y="404"/>
			<point x="483" y="411" type="curve"/>
			<point x="486" y="412" type="line"/>
			<point x="491" y="406"/>
			<point x="498" y="402"/>
			<point x="507" y="398" type="curve"/>
			<point x="507" y="394" type="line"/>
			<point x="499" y="391"/>
			<point x="482" y="388"/>
			<point x="472" y="392" type="curve"/>
			<point x="474" y="388"/>
			<point x="474" y="383"/>
			<point x="473" y="378" type="curve"/>
			<point x="470" y="374"/>
			<point x="470" y="369"/>
			<point x="474" y="365" type="curve"/>
			<point x="470" y="363" type="line"/>
			<point x="469" y="364"/>
			<point x="466" y="365"/>
			<point x="460" y="368" type="curve"/>
			<point x="450" y="369"/>
			<point x="439" y="371"/>
			<point x="432" y="378" type="curve"/>
			<point x="428" y="369"/>
			<point x="421" y="364"/>
			<point x="415" y="360" type="curve"/>
			<point x="411" y="357"/>
			<point x="409" y="357"/>
			<point x="406" y="352" type="curve"/>
			<point x="405" y="355" type="line"/>
			<point x="406" y="361"/>
			<point x="402" y="372"/>
			<point x="398" y="382" type="curve"/>
			<point x="393" y="389"/>
			<point x="390" y="399"/>
			<point x="391" y="406" type="curve"/>
			<point x="389" y="404"/>
			<point x="388" y="398"/>
			<point x="386" y="390" type="curve" smooth="yes"/>
			<point x="384" y="382"/>
			<point x="381" y="370"/>
			<point x="373" y="365" type="curve"/>
			<point x="372" y="369" type="line"/>
			<point x="373" y="372"/>
			<point x="371" y="375"/>
			<point x="366" y="381" type="curve"/>
			<point x="364" y="383"/>
			<point x="362" y="385"/>
			<point x="361" y="388" type="curve"/>
			<point x="357" y="377"/>
			<point x="350" y="366"/>
			<point x="340" y="359" type="curve"/>
			<point x="338" y="360" type="line"/>
			<point x="341" y="370"/>
			<point x="339" y="375"/>
			<point x="337" y="382" type="curve"/>
			<point x="337" y="383" type="line"/>
			<point x="333" y="363"/>
			<point x="324" y="360"/>
			<point x="317" y="357" type="curve"/>
			<point x="313" y="357"/>
			<point x="311" y="356"/>
			<point x="309" y="351" type="curve"/>
			<point x="307" y="352" type="line"/>
			<point x="308" y="363"/>
			<point x="308" y="370"/>
			<point x="304" y="376" type="curve"/>
			<point x="303" y="380"/>
			<point x="303" y="382"/>
			<point x="303" y="385" type="curve"/>
			<point x="296" y="380"/>
			<point x="284" y="375"/>
			<point x="277" y="376" type="curve"/>
		</contour>
		<contour>
			<point x="307" y="450" type="curve"/>
			<point x="309" y="449" type="line"/>
			<point x="308" y="445"/>
			<point x="311" y="439"/>
			<point x="313" y="434" type="curve" smooth="yes"/>
			<point x="315" y="429"/>
			<point x="316" y="425"/>
			<point x="315" y="422" type="curve"/>
			<point x="321" y="426"/>
			<point x="326" y="437"/>
			<point x="327" y="444" type="curve"/>
			<point x="330" y="444" type="line"/>
			<point x="335" y="433"/>
			<point x="336" y="426"/>
			<point x="336" y="421" type="curve"/>
			<point x="343" y="426"/>
			<point x="348" y="435"/>
			<point x="351" y="441" type="curve"/>
			<point x="353" y="442" type="line"/>
			<point x="359" y="434"/>
			<point x="368" y="423"/>
			<point x="370" y="413" type="curve"/>
			<point x="373" y="418"/>
			<point x="373" y="425"/>
			<point x="373" y="431" type="curve" smooth="yes"/>
			<point x="373" y="434"/>
			<point x="375" y="437"/>
			<point x="375" y="439" type="curve"/>
			<point x="376" y="439" type="line"/>
			<point x="379" y="434"/>
			<point x="384" y="432"/>
			<point x="388" y="429" type="curve"/>
			<point x="397" y="424"/>
			<point x="404" y="420"/>
			<point x="406" y="409" type="curve"/>
			<point x="409" y="418"/>
			<point x="411" y="425"/>
			<point x="409" y="434" type="curve"/>
			<point x="412" y="434" type="line"/>
			<point x="413" y="424"/>
			<point x="412" y="415"/>
			<point x="406" y="406" type="curve"/>
			<point x="404" y="407" type="line"/>
			<point x="404" y="419"/>
			<point x="396" y="423"/>
			<point x="388" y="426" type="curve"/>
			<point x="384" y="429"/>
			<point x="378" y="431"/>
			<point x="376" y="435" type="curve"/>
			<point x="376" y="431" type="line" smooth="yes"/>
			<point x="376" y="424"/>
			<point x="376" y="412"/>
			<point x="371" y="407" type="curve"/>
			<point x="368" y="408" type="line"/>
			<point x="368" y="418"/>
			<point x="359" y="430"/>
			<point x="352" y="438" type="curve"/>
			<point x="349" y="431"/>
			<point x="341" y="419"/>
			<point x="330" y="415" type="curve"/>
			<point x="329" y="419" type="line"/>
			<point x="332" y="422"/>
			<point x="333" y="428"/>
			<point x="329" y="437" type="curve"/>
			<point x="327" y="430"/>
			<point x="320" y="420"/>
			<point x="313" y="419" type="curve"/>
			<point x="311" y="419" type="line"/>
			<point x="313" y="423"/>
			<point x="312" y="427"/>
			<point x="309" y="433" type="curve"/>
			<point x="308" y="439"/>
			<point x="307" y="445"/>
		</contour>
		<contour>
			<point x="338" y="479" type="curve"/>
			<point x="341" y="479" type="line"/>
			<point x="342" y="472"/>
			<point x="347" y="467"/>
			<point x="353" y="462" type="curve"/>
			<point x="355" y="460"/>
			<point x="358" y="457"/>
			<point x="359" y="454" type="curve"/>
			<point x="360" y="455"/>
			<point x="361" y="456"/>
			<point x="362" y="458" type="curve"/>
			<point x="363" y="462"/>
			<point x="367" y="469"/>
			<point x="367" y="473" type="curve"/>
			<point x="370" y="474" type="line"/>
			<point x="376" y="467"/>
			<point x="387" y="460"/>
			<point x="389" y="446" type="curve"/>
			<point x="390" y="449"/>
			<point x="393" y="453"/>
			<point x="393" y="458" type="curve"/>
			<point x="397" y="458" type="line"/>
			<point x="399" y="449"/>
			<point x="406" y="444"/>
			<point x="415" y="439" type="curve"/>
			<point x="420" y="437"/>
			<point x="424" y="434"/>
			<point x="426" y="431" type="curve"/>
			<point x="427" y="435"/>
			<point x="428" y="443"/>
			<point x="428" y="448" type="curve"/>
			<point x="430" y="449" type="line"/>
			<point x="439" y="433"/>
			<point x="460" y="415"/>
			<point x="480" y="420" type="curve"/>
			<point x="481" y="419" type="line"/>
			<point x="459" y="412"/>
			<point x="440" y="429"/>
			<point x="430" y="445" type="curve"/>
			<point x="430" y="438"/>
			<point x="430" y="428"/>
			<point x="428" y="426" type="curve"/>
			<point x="425" y="426" type="line"/>
			<point x="424" y="429"/>
			<point x="418" y="433"/>
			<point x="414" y="437" type="curve"/>
			<point x="407" y="440"/>
			<point x="400" y="444"/>
			<point x="396" y="452" type="curve"/>
			<point x="394" y="448"/>
			<point x="391" y="444"/>
			<point x="388" y="441" type="curve"/>
			<point x="386" y="442" type="line"/>
			<point x="386" y="455"/>
			<point x="378" y="462"/>
			<point x="370" y="469" type="curve"/>
			<point x="369" y="464"/>
			<point x="366" y="460"/>
			<point x="363" y="457" type="curve"/>
			<point x="363" y="454"/>
			<point x="362" y="453"/>
			<point x="360" y="452" type="curve"/>
			<point x="358" y="452" type="line"/>
			<point x="356" y="454"/>
			<point x="354" y="457"/>
			<point x="351" y="461" type="curve"/>
			<point x="346" y="465"/>
			<point x="338" y="471"/>
		</contour>
		<contour>
			<point x="325" y="524" type="curve"/>
			<point x="328" y="524" type="line"/>
			<point x="327" y="510"/>
			<point x="335" y="508"/>
			<point x="340" y="504" type="curve"/>
			<point x="342" y="503"/>
			<point x="345" y="502"/>
			<point x="346" y="501" type="curve"/>
			<point x="348" y="503"/>
			<point x="349" y="506"/>
			<point x="350" y="508" type="curve"/>
			<point x="351" y="512"/>
			<point x="357" y="514"/>
			<point x="357" y="517" type="curve"/>
			<point x="359" y="517" type="line"/>
			<point x="359" y="513"/>
			<point x="362" y="510"/>
			<point x="367" y="509" type="curve"/>
			<point x="370" y="507"/>
			<point x="373" y="505"/>
			<point x="375" y="503" type="curve"/>
			<point x="376" y="505" type="line" smooth="yes"/>
			<point x="378" y="510"/>
			<point x="378" y="514"/>
			<point x="377" y="520" type="curve"/>
			<point x="375" y="523"/>
			<point x="374" y="525"/>
			<point x="374" y="527" type="curve" smooth="yes"/>
			<point x="374" y="527" type="line"/>
			<point x="375" y="529" type="line"/>
			<point x="376" y="527"/>
			<point x="377" y="525"/>
			<point x="378" y="523" type="curve"/>
			<point x="382" y="518" type="line"/>
			<point x="384" y="517"/>
			<point x="386" y="513"/>
			<point x="388" y="510" type="curve"/>
			<point x="390" y="513" type="line"/>
			<point x="392" y="516"/>
			<point x="395" y="521"/>
			<point x="393" y="527" type="curve"/>
			<point x="392" y="528"/>
			<point x="392" y="529"/>
			<point x="391" y="530" type="curve"/>
			<point x="391" y="531" type="line"/>
			<point x="391" y="534" type="line"/>
			<point x="395" y="534" type="line"/>
			<point x="396" y="529" type="line"/>
			<point x="397" y="527"/>
			<point x="398" y="526"/>
			<point x="400" y="524" type="curve"/>
			<point x="403" y="522"/>
			<point x="407" y="518"/>
			<point x="408" y="513" type="curve"/>
			<point x="410" y="518"/>
			<point x="413" y="526"/>
			<point x="412" y="540" type="curve"/>
			<point x="416" y="540" type="line"/>
			<point x="416" y="534"/>
			<point x="422" y="528"/>
			<point x="429" y="525" type="curve"/>
			<point x="434" y="522"/>
			<point x="438" y="518"/>
			<point x="440" y="513" type="curve"/>
			<point x="443" y="523"/>
			<point x="442" y="539"/>
			<point x="437" y="552" type="curve"/>
			<point x="439" y="554" type="line"/>
			<point x="448" y="547"/>
			<point x="452" y="537"/>
			<point x="454" y="521" type="curve"/>
			<point x="455" y="509"/>
			<point x="468" y="500"/>
			<point x="478" y="491" type="curve"/>
			<point x="476" y="490" type="line"/>
			<point x="467" y="497"/>
			<point x="452" y="505"/>
			<point x="451" y="518" type="curve" smooth="yes"/>
			<point x="450" y="532"/>
			<point x="449" y="540"/>
			<point x="442" y="547" type="curve"/>
			<point x="447" y="534"/>
			<point x="447" y="519"/>
			<point x="440" y="508" type="curve"/>
			<point x="438" y="508" type="line"/>
			<point x="438" y="514"/>
			<point x="434" y="517"/>
			<point x="426" y="523" type="curve"/>
			<point x="423" y="525"/>
			<point x="419" y="527"/>
			<point x="416" y="531" type="curve"/>
			<point x="415" y="522"/>
			<point x="412" y="516"/>
			<point x="410" y="512" type="curve" smooth="yes"/>
			<point x="409" y="510"/>
			<point x="409" y="509"/>
			<point x="408" y="508" type="curve"/>
			<point x="404" y="508" type="line"/>
			<point x="404" y="509" type="line" smooth="yes"/>
			<point x="405" y="516"/>
			<point x="403" y="518"/>
			<point x="398" y="522" type="curve"/>
			<point x="396" y="524" type="line"/>
			<point x="396" y="519"/>
			<point x="394" y="514"/>
			<point x="392" y="512" type="curve"/>
			<point x="391" y="510"/>
			<point x="390" y="508"/>
			<point x="390" y="505" type="curve"/>
			<point x="387" y="505" type="line"/>
			<point x="387" y="510"/>
			<point x="383" y="513"/>
			<point x="380" y="516" type="curve"/>
			<point x="380" y="512"/>
			<point x="380" y="508"/>
			<point x="379" y="504" type="curve"/>
			<point x="379" y="502"/>
			<point x="378" y="499"/>
			<point x="379" y="497" type="curve"/>
			<point x="379" y="495" type="line"/>
			<point x="376" y="492" type="line"/>
			<point x="375" y="494" type="line"/>
			<point x="373" y="501"/>
			<point x="370" y="504"/>
			<point x="366" y="505" type="curve" smooth="yes"/>
			<point x="361" y="506"/>
			<point x="359" y="508"/>
			<point x="358" y="511" type="curve"/>
			<point x="357" y="509"/>
			<point x="355" y="507"/>
			<point x="353" y="505" type="curve" smooth="yes"/>
			<point x="350" y="502"/>
			<point x="348" y="499"/>
			<point x="348" y="496" type="curve"/>
			<point x="345" y="496" type="line"/>
			<point x="345" y="498"/>
			<point x="342" y="499"/>
			<point x="339" y="501" type="curve"/>
			<point x="333" y="504"/>
			<point x="324" y="510"/>
		</contour>
		<contour>
			<point x="460" y="556" type="curve"/>
			<point x="464" y="559" type="line"/>
			<point x="467" y="551"/>
			<point x="472" y="547"/>
			<point x="476" y="543" type="curve" smooth="yes"/>
			<point x="479" y="540"/>
			<point x="484" y="538"/>
			<point x="485" y="531" type="curve"/>
			<point x="481" y="530" type="line"/>
			<point x="480" y="535"/>
			<point x="479" y="539"/>
			<point x="473" y="541" type="curve"/>
			<point x="468" y="543"/>
			<point x="465" y="548"/>
		</contour>
		<contour>
			<point x="298" y="574" type="curve" smooth="yes"/>
			<point x="304" y="593"/>
			<point x="327" y="589"/>
			<point x="337" y="579" type="curve" smooth="yes"/>
			<point x="348" y="568"/>
			<point x="362" y="565"/>
			<point x="378" y="566" type="curve"/>
			<point x="374" y="569"/>
			<point x="372" y="572"/>
			<point x="370" y="574" type="curve"/>
			<point x="368" y="577"/>
			<point x="367" y="580"/>
			<point x="365" y="584" type="curve"/>
			<point x="363" y="586" type="line"/>
			<point x="364" y="589" type="line"/>
			<point x="367" y="587"/>
			<point x="369" y="584"/>
			<point x="370" y="582" type="curve"/>
			<point x="385" y="570"/>
			<point x="408" y="572"/>
			<point x="421" y="576" type="curve"/>
			<point x="417" y="578"/>
			<point x="415" y="581"/>
			<point x="413" y="585" type="curve"/>
			<point x="410" y="589"/>
			<point x="409" y="592"/>
			<point x="404" y="593" type="curve"/>
			<point x="405" y="597" type="line"/>
			<point x="427" y="592"/>
			<point x="457" y="599"/>
			<point x="470" y="615" type="curve"/>
			<point x="474" y="614" type="line"/>
			<point x="461" y="599"/>
			<point x="433" y="591"/>
			<point x="411" y="592" type="curve"/>
			<point x="413" y="590"/>
			<point x="414" y="588"/>
			<point x="415" y="586" type="curve"/>
			<point x="418" y="581"/>
			<point x="422" y="577"/>
			<point x="427" y="577" type="curve"/>
			<point x="427" y="573" type="line"/>
			<point x="415" y="570"/>
			<point x="390" y="567"/>
			<point x="373" y="576" type="curve"/>
			<point x="375" y="572"/>
			<point x="376" y="569"/>
			<point x="383" y="566" type="curve"/>
			<point x="381" y="563" type="line"/>
			<point x="359" y="561"/>
			<point x="343" y="569"/>
			<point x="334" y="577" type="curve"/>
			<point x="325" y="586"/>
			<point x="302" y="590"/>
			<point x="300" y="573" type="curve" smooth="yes"/>
			<point x="299" y="565"/>
			<point x="304" y="560"/>
			<point x="311" y="560" type="curve" smooth="yes"/>
			<point x="316" y="560"/>
			<point x="320" y="565"/>
			<point x="320" y="567" type="curve" smooth="yes"/>
			<point x="320" y="576"/>
			<point x="317" y="577"/>
			<point x="314" y="577" type="curve"/>
			<point x="314" y="579" type="line"/>
			<point x="321" y="579"/>
			<point x="324" y="574"/>
			<point x="324" y="567" type="curve" smooth="yes"/>
			<point x="324" y="564"/>
			<point x="317" y="556"/>
			<point x="311" y="556" type="curve" smooth="yes"/>
			<point x="304" y="556"/>
			<point x="295" y="564"/>
		</contour>
		<contour>
			<point x="197" y="497" type="curve"/>
			<point x="198" y="500" type="line"/>
			<point x="211" y="491"/>
			<point x="237" y="485"/>
			<point x="271" y="484" type="curve"/>
			<point x="271" y="479" type="line"/>
			<point x="269" y="479"/>
			<point x="268" y="477"/>
			<point x="265" y="474" type="curve"/>
			<point x="262" y="470" type="line"/>
			<point x="272" y="472"/>
			<point x="278" y="470"/>
			<point x="286" y="469" type="curve"/>
			<point x="291" y="467"/>
			<point x="295" y="466"/>
			<point x="302" y="467" type="curve"/>
			<point x="300" y="477"/>
			<point x="296" y="484"/>
			<point x="291" y="490" type="curve"/>
			<point x="295" y="491" type="line"/>
			<point x="299" y="486"/>
			<point x="303" y="478"/>
			<point x="304" y="466" type="curve"/>
			<point x="303" y="463" type="line"/>
			<point x="296" y="462"/>
			<point x="290" y="463"/>
			<point x="285" y="465" type="curve"/>
			<point x="277" y="467"/>
			<point x="270" y="469"/>
			<point x="259" y="465" type="curve"/>
			<point x="258" y="469" type="line"/>
			<point x="260" y="470"/>
			<point x="261" y="473"/>
			<point x="262" y="475" type="curve" smooth="yes"/>
			<point x="263" y="477"/>
			<point x="264" y="478"/>
			<point x="264" y="480" type="curve"/>
			<point x="234" y="483"/>
			<point x="209" y="489"/>
		</contour>
	</outline>
</glyph>
<glyph name="lki-bulath" format="2">
	<advance width="932"/>
	<unicode hex="F100"/>
	<outline>
		<contour>
			<point x="194" y="322" type="line"/>
			<point x="190" y="326"/>
			<point x="197" y="330"/>
			<point x="207" y="340" type="curve" smooth="yes"/>
			<point x="214" y="347"/>
			<point x="221" y="353"/>
			<point x="228" y="360" type="curve" smooth="yes"/>
			<point x="252" y="384"/>
			<point x="273" y="396"/>
			<point x="291" y="396" type="curve"/>
			<point x="312" y="390" type="line"/>
			<point x="317" y="390"/>
			<point x="319" y="396"/>
			<point x="318" y="408" type="curve" smooth="yes"/>
			<point x="317" y="426" type="line"/>
			<point x="318" y="433"/>
			<point x="344" y="459"/>
			<point x="396" y="505" type="curve"/>
			<point x="387" y="478" type="line"/>
			<point x="387" y="475" type="line"/>
			<point x="422" y="491"/>
			<point x="417" y="492"/>
			<point x="442" y="512" type="curve"/>
			<point x="489" y="518" type="line"/>
			<point x="466" y="485"/>
			<point x="436" y="456"/>
			<point x="405" y="421" type="curve" smooth="yes"/>
			<point x="269" y="270" type="line" smooth="yes"/>
			<point x="250" y="249"/>
			<point x="229" y="231"/>
			<point x="206" y="216" type="curve" smooth="yes"/>
			<point x="157" y="184"/>
			<point x="97" y="129"/>
			<point x="26" y="50" type="curve"/>
			<point x="60" y="97"/>
			<point x="88" y="132"/>
			<point x="107" y="156" type="curve" smooth="yes"/>
			<point x="111" y="161"/>
			<point x="112" y="167"/>
			<point x="114" y="174" type="curve" smooth="yes"/>
			<point x="120" y="194"/>
			<point x="158" y="219"/>
			<point x="214" y="251" type="curve" smooth="yes"/>
			<point x="221" y="255"/>
			<point x="225" y="256"/>
			<point x="227" y="258" type="curve" smooth="yes"/>
			<point x="230" y="261"/>
			<point x="223" y="264"/>
			<point x="214" y="264" type="curve"/>
			<point x="173" y="255" type="line"/>
			<point x="144" y="248" type="line" smooth="yes"/>
			<point x="140" y="247"/>
			<point x="137" y="248"/>
			<point x="136" y="249" type="curve"/>
			<point x="147" y="265" type="line"/>
			<point x="153" y="272"/>
			<point x="158" y="274"/>
			<point x="163" y="275" type="curve" smooth="yes"/>
			<point x="222" y="284" type="line"/>
			<point x="219" y="287"/>
			<point x="213" y="291"/>
			<point x="203" y="297" type="curve"/>
			<point x="287" y="319" type="line"/>
			<point x="275" y="327"/>
			<point x="262" y="332"/>
			<point x="248" y="333" type="curve"/>
		</contour>
		<contour>
			<point x="913" y="395" type="curve" smooth="yes"/>
			<point x="913" y="336"/>
			<point x="895" y="289"/>
			<point x="858" y="252" type="curve" smooth="yes"/>
			<point x="840" y="234"/>
			<point x="795" y="204"/>
			<point x="723" y="162" type="curve" smooth="yes"/>
			<point x="670" y="131" type="line" smooth="yes"/>
			<point x="655" y="122"/>
			<point x="634" y="114"/>
			<point x="606" y="106" type="curve" smooth="yes"/>
			<point x="542" y="88"/>
			<point x="484" y="68"/>
			<point x="432" y="49" type="curve" smooth="yes"/>
			<point x="330" y="12"/>
			<point x="261" y="-7"/>
			<point x="225" y="-6" type="curve" smooth="yes"/>
			<point x="167" y="-5" type="line" smooth="yes"/>
			<point x="150" y="-5"/>
			<point x="125" y="-10"/>
			<point x="94" y="-21" type="curve" smooth="yes"/>
			<point x="62" y="-32"/>
			<point x="48" y="-37"/>
			<point x="52" y="-37" type="curve"/>
			<point x="51" y="-37"/>
			<point x="49" y="-37"/>
			<point x="50" y="-36" type="curve" smooth="yes"/>
			<point x="91" y="8" type="line"/>
			<point x="74" y="22" type="line"/>
			<point x="85" y="19"/>
			<point x="95" y="18"/>
			<point x="102" y="18" type="curve" smooth="yes"/>
			<point x="150" y="18"/>
			<point x="218" y="31"/>
			<point x="264" y="41" type="curve" smooth="yes"/>
			<point x="368" y="64" type="line" smooth="yes"/>
			<point x="423" y="76"/>
			<point x="468" y="89"/>
			<point x="504" y="102" type="curve" smooth="yes"/>
			<point x="546" y="117" type="line" smooth="yes"/>
			<point x="551" y="119"/>
			<point x="559" y="122"/>
			<point x="569" y="125" type="curve" smooth="yes"/>
			<point x="660" y="152"/>
			<point x="736" y="192"/>
			<point x="807" y="238" type="curve"/>
			<point x="816" y="249"/>
			<point x="831" y="264"/>
			<point x="852" y="285" type="curve"/>
			<point x="885" y="310"/>
			<point x="896" y="334"/>
			<point x="896" y="416" type="curve" smooth="yes"/>
			<point x="896" y="461" type="line"/>
			<point x="891" y="521" type="line"/>
			<point x="905" y="459" type="line" smooth="yes"/>
			<point x="910" y="439"/>
			<point x="913" y="418"/>
		</contour>
		<contour>
			<point x="464" y="625" type="curve" smooth="yes"/>
			<point x="531" y="622" type="line"/>
			<point x="522" y="613"/>
			<point x="505" y="600"/>
			<point x="481" y="584" type="curve"/>
			<point x="364" y="526"/>
			<point x="298" y="481"/>
			<point x="228" y="416" type="curve" smooth="yes"/>
			<point x="197" y="387"/>
			<point x="134" y="296"/>
			<point x="104" y="220" type="curve"/>
			<point x="104" y="224"/>
			<point x="105" y="229"/>
			<point x="106" y="235" type="curve" smooth="yes"/>
			<point x="109" y="256" type="line"/>
			<point x="113" y="273"/>
			<point x="115" y="285"/>
			<point x="115" y="294" type="curve" smooth="yes"/>
			<point x="115" y="306" type="line" smooth="yes"/>
			<point x="115" y="319"/>
			<point x="116" y="326"/>
			<point x="119" y="326" type="curve" smooth="yes"/>
			<point x="128" y="326"/>
			<point x="148" y="322"/>
			<point x="148" y="331" type="curve"/>
			<point x="142" y="351" type="line" smooth="yes"/>
			<point x="142" y="352"/>
			<point x="145" y="350"/>
			<point x="150" y="350" type="curve" smooth="yes"/>
			<point x="160" y="350"/>
			<point x="168" y="370"/>
			<point x="173" y="378" type="curve" smooth="yes"/>
			<point x="187" y="401" type="line"/>
			<point x="187" y="406"/>
			<point x="172" y="413"/>
			<point x="142" y="420" type="curve"/>
			<point x="147" y="425"/>
			<point x="157" y="431"/>
			<point x="172" y="439" type="curve"/>
			<point x="186" y="440" type="line" smooth="yes"/>
			<point x="195" y="441"/>
			<point x="199" y="442"/>
			<point x="199" y="445" type="curve" smooth="yes"/>
			<point x="199" y="457"/>
			<point x="183" y="468"/>
			<point x="170" y="483" type="curve"/>
			<point x="182" y="484"/>
			<point x="199" y="487"/>
			<point x="220" y="491" type="curve"/>
			<point x="234" y="499" type="line" smooth="yes"/>
			<point x="246" y="506"/>
			<point x="252" y="511"/>
			<point x="252" y="515" type="curve" smooth="yes"/>
			<point x="252" y="519"/>
			<point x="248" y="523"/>
			<point x="239" y="528" type="curve"/>
			<point x="243" y="539"/>
			<point x="249" y="546"/>
			<point x="258" y="549" type="curve" smooth="yes"/>
			<point x="268" y="552"/>
			<point x="286" y="553"/>
			<point x="308" y="558" type="curve"/>
			<point x="262" y="586" type="line"/>
			<point x="278" y="583"/>
			<point x="294" y="581"/>
			<point x="310" y="581" type="curve" smooth="yes"/>
			<point x="337" y="581"/>
			<point x="365" y="590"/>
			<point x="394" y="607" type="curve"/>
			<point x="422" y="620"/>
			<point x="445" y="626"/>
		</contour>
		<contour>
			<point x="643" y="730" type="curve" smooth="yes"/>
			<point x="662" y="692" type="line" smooth="yes"/>
			<point x="682" y="653"/>
			<point x="608" y="750"/>
			<point x="561" y="749" type="curve" smooth="yes"/>
			<point x="504" y="748" type="line"/>
			<point x="446" y="744" type="line"/>
			<point x="399" y="740" type="line" smooth="yes"/>
			<point x="354" y="736"/>
			<point x="314" y="728"/>
			<point x="280" y="713" type="curve" smooth="yes"/>
			<point x="259" y="704"/>
			<point x="228" y="672"/>
			<point x="187" y="615" type="curve" smooth="yes"/>
			<point x="146" y="558"/>
			<point x="123" y="513"/>
			<point x="116" y="481" type="curve" smooth="yes"/>
			<point x="94" y="380"/>
			<point x="82" y="320"/>
			<point x="82" y="299" type="curve" smooth="yes"/>
			<point x="82" y="284" type="line" smooth="yes"/>
			<point x="82" y="273"/>
			<point x="69" y="171"/>
			<point x="67" y="164" type="curve" smooth="yes"/>
			<point x="56" y="126"/>
			<point x="44" y="97"/>
			<point x="26" y="82" type="curve"/>
			<point x="31" y="92" type="line" smooth="yes"/>
			<point x="49" y="129"/>
			<point x="61" y="180"/>
			<point x="67" y="247" type="curve" smooth="yes"/>
			<point x="73" y="313"/>
			<point x="77" y="360"/>
			<point x="81" y="389" type="curve" smooth="yes"/>
			<point x="90" y="456"/>
			<point x="120" y="541"/>
			<point x="171" y="642" type="curve" smooth="yes"/>
			<point x="188" y="676"/>
			<point x="228" y="709"/>
			<point x="292" y="743" type="curve" smooth="yes"/>
			<point x="309" y="752"/>
			<point x="334" y="758"/>
			<point x="368" y="763" type="curve" smooth="yes"/>
			<point x="402" y="768"/>
			<point x="427" y="770"/>
			<point x="444" y="770" type="curve" smooth="yes"/>
			<point x="557" y="770" type="line"/>
			<point x="591" y="763"/>
			<point x="612" y="759"/>
			<point x="620" y="757" type="curve" smooth="yes"/>
			<point x="628" y="755"/>
			<point x="636" y="745"/>
		</contour>
		<contour>
			<point x="890" y="455" type="curve"/>
			<point x="888" y="440" type="line"/>
			<point x="883" y="391"/>
			<point x="880" y="362"/>
			<point x="879" y="353" type="curve" smooth="yes"/>
			<point x="875" y="321"/>
			<point x="837" y="283"/>
			<point x="776" y="238" type="curve" smooth="yes"/>
			<point x="746" y="216"/>
			<point x="703" y="195"/>
			<point x="648" y="174" type="curve" smooth="yes"/>
			<point x="593" y="153"/>
			<point x="559" y="139"/>
			<point x="546" y="134" type="curve" smooth="yes"/>
			<point x="473" y="106"/>
			<point x="365" y="65"/>
			<point x="213" y="46" type="curve" smooth="yes"/>
			<point x="205" y="45"/>
			<point x="156" y="40"/>
			<point x="67" y="32" type="curve"/>
			<point x="98" y="35"/>
			<point x="120" y="40"/>
			<point x="132" y="47" type="curve" smooth="yes"/>
			<point x="144" y="54"/>
			<point x="162" y="71"/>
			<point x="190" y="71" type="curve" smooth="yes"/>
			<point x="191" y="71"/>
			<point x="208" y="74"/>
			<point x="241" y="78" type="curve"/>
			<point x="286" y="94" type="line"/>
			<point x="332" y="112"/>
			<point x="382" y="123"/>
			<point x="441" y="141" type="curve"/>
			<point x="466" y="157"/>
			<point x="468" y="159"/>
			<point x="487" y="144" type="curve" smooth="yes"/>
			<point x="491" y="141"/>
			<point x="491" y="138"/>
			<point x="493" y="138" type="curve" smooth="yes"/>
			<point x="520" y="138"/>
			<point x="530" y="167"/>
			<point x="542" y="176" type="curve"/>
			<point x="577" y="188"/>
			<point x="603" y="195"/>
			<point x="642" y="208" type="curve" smooth="yes"/>
			<point x="663" y="215"/>
			<point x="703" y="236"/>
			<point x="760" y="273" type="curve" smooth="yes"/>
			<point x="811" y="306"/>
			<point x="841" y="344"/>
			<point x="852" y="385" type="curve" smooth="yes"/>
			<point x="855" y="396"/>
			<point x="870" y="456"/>
			<point x="870" y="470" type="curve" smooth="yes"/>
			<point x="870" y="488" type="line" smooth="yes"/>
			<point x="870" y="491"/>
			<point x="869" y="494"/>
			<point x="869" y="498" type="curve" smooth="yes"/>
			<point x="864" y="562" type="line"/>
			<point x="864" y="572" type="line"/>
			<point x="875" y="529" type="line" smooth="yes"/>
			<point x="885" y="489"/>
			<point x="890" y="464"/>
		</contour>
		<contour>
			<point x="387" y="312" type="line" smooth="yes"/>
			<point x="392" y="311"/>
			<point x="415" y="326"/>
			<point x="419" y="326" type="curve" smooth="yes"/>
			<point x="420" y="326"/>
			<point x="422" y="324"/>
			<point x="423" y="321" type="curve"/>
			<point x="423" y="304" type="line" smooth="yes"/>
			<point x="423" y="301"/>
			<point x="422" y="299"/>
			<point x="422" y="298" type="curve" smooth="yes"/>
			<point x="422" y="287" type="line"/>
			<point x="423" y="286" type="line" smooth="yes"/>
			<point x="424" y="285"/>
			<point x="432" y="294"/>
			<point x="445" y="310" type="curve" smooth="yes"/>
			<point x="477" y="349"/>
			<point x="498" y="390"/>
			<point x="513" y="429" type="curve" smooth="yes"/>
			<point x="545" y="512"/>
			<point x="581" y="586"/>
			<point x="619" y="650" type="curve"/>
			<point x="630" y="664" type="line"/>
			<point x="632" y="661" type="line"/>
			<point x="632" y="656"/>
			<point x="625" y="634"/>
			<point x="610" y="593" type="curve" smooth="yes"/>
			<point x="586" y="528" type="line" smooth="yes"/>
			<point x="584" y="522"/>
			<point x="579" y="507"/>
			<point x="573" y="483" type="curve" smooth="yes"/>
			<point x="554" y="409" type="line" smooth="yes"/>
			<point x="532" y="324"/>
			<point x="495" y="265"/>
			<point x="442" y="234" type="curve" smooth="yes"/>
			<point x="418" y="220"/>
			<point x="358" y="199"/>
			<point x="263" y="171" type="curve" smooth="yes"/>
			<point x="246" y="166"/>
			<point x="235" y="165"/>
			<point x="232" y="164" type="curve" smooth="yes"/>
			<point x="205" y="155"/>
			<point x="175" y="139"/>
			<point x="138" y="129" type="curve"/>
			<point x="173" y="149"/>
			<point x="193" y="159"/>
			<point x="200" y="159" type="curve"/>
			<point x="212" y="157" type="line"/>
			<point x="225" y="157"/>
			<point x="243" y="165"/>
			<point x="265" y="185" type="curve" smooth="yes"/>
			<point x="286" y="204"/>
			<point x="299" y="217"/>
			<point x="303" y="226" type="curve" smooth="yes"/>
			<point x="305" y="231"/>
			<point x="307" y="243"/>
			<point x="310" y="262" type="curve"/>
			<point x="318" y="263"/>
			<point x="342" y="271"/>
			<point x="352" y="284" type="curve" smooth="yes"/>
			<point x="367" y="303"/>
			<point x="373" y="315"/>
			<point x="376" y="314" type="curve" smooth="yes"/>
		</contour>
		<contour>
			<point x="677" y="614" type="line"/>
			<point x="675" y="621"/>
			<point x="662" y="636"/>
			<point x="662" y="647" type="curve" smooth="yes"/>
			<point x="662" y="653"/>
			<point x="663" y="656"/>
			<point x="666" y="656" type="curve" smooth="yes"/>
			<point x="669" y="656"/>
			<point x="675" y="644"/>
			<point x="684" y="621" type="curve" smooth="yes"/>
			<point x="700" y="578" type="line"/>
			<point x="719" y="547"/>
			<point x="729" y="520"/>
			<point x="729" y="499" type="curve"/>
			<point x="724" y="465" type="line" smooth="yes"/>
			<point x="724" y="463"/>
			<point x="725" y="459"/>
			<point x="725" y="453" type="curve" smooth="yes"/>
			<point x="725" y="447"/>
			<point x="728" y="431"/>
			<point x="734" y="404" type="curve"/>
			<point x="734" y="394"/>
			<point x="729" y="379"/>
			<point x="718" y="358" type="curve" smooth="yes"/>
			<point x="707" y="337"/>
			<point x="702" y="322"/>
			<point x="702" y="312" type="curve"/>
			<point x="705" y="314"/>
			<point x="708" y="318"/>
			<point x="712" y="325" type="curve"/>
			<point x="717" y="328"/>
			<point x="726" y="336"/>
			<point x="737" y="349" type="curve" smooth="yes"/>
			<point x="752" y="367"/>
			<point x="758" y="410"/>
			<point x="766" y="438" type="curve" smooth="yes"/>
			<point x="776" y="474" type="line"/>
			<point x="785" y="494"/>
			<point x="789" y="507"/>
			<point x="789" y="514" type="curve" smooth="yes"/>
			<point x="789" y="520"/>
			<point x="787" y="529"/>
			<point x="784" y="541" type="curve"/>
			<point x="764" y="552"/>
			<point x="754" y="560"/>
			<point x="754" y="566" type="curve" smooth="yes"/>
			<point x="754" y="568"/>
			<point x="759" y="571"/>
			<point x="768" y="576" type="curve" smooth="yes"/>
			<point x="777" y="581"/>
			<point x="783" y="590"/>
			<point x="785" y="607" type="curve" smooth="yes"/>
			<point x="786" y="616"/>
			<point x="762" y="638"/>
			<point x="717" y="673" type="curve"/>
			<point x="682" y="690" type="line"/>
			<point x="696" y="693" type="line"/>
			<point x="711" y="693" type="line"/>
			<point x="806" y="691"/>
			<point x="839" y="654"/>
			<point x="846" y="558" type="curve" smooth="yes"/>
			<point x="849" y="518"/>
			<point x="853" y="485"/>
			<point x="853" y="458" type="curve" smooth="yes"/>
			<point x="853" y="422"/>
			<point x="835" y="383"/>
			<point x="800" y="342" type="curve" smooth="yes"/>
			<point x="769" y="305"/>
			<point x="734" y="275"/>
			<point x="692" y="256" type="curve" smooth="yes"/>
			<point x="649" y="236"/>
			<point x="583" y="212"/>
			<point x="494" y="184" type="curve" smooth="yes"/>
			<point x="315" y="128"/>
			<point x="169" y="85"/>
			<point x="58" y="57" type="curve"/>
			<point x="75" y="70"/>
			<point x="86" y="79"/>
			<point x="92" y="83" type="curve" smooth="yes"/>
			<point x="98" y="87"/>
			<point x="118" y="94"/>
			<point x="153" y="102" type="curve" smooth="yes"/>
			<point x="193" y="111"/>
			<point x="238" y="125"/>
			<point x="287" y="142" type="curve"/>
			<point x="323" y="160"/>
			<point x="390" y="178"/>
			<point x="420" y="202" type="curve" smooth="yes"/>
			<point x="434" y="213"/>
			<point x="455" y="219"/>
			<point x="480" y="223" type="curve" smooth="yes"/>
			<point x="487" y="224"/>
			<point x="495" y="232"/>
			<point x="506" y="243" type="curve" smooth="yes"/>
			<point x="508" y="245"/>
			<point x="512" y="246"/>
			<point x="516" y="249" type="curve" smooth="yes"/>
			<point x="563" y="294" type="line" smooth="yes"/>
			<point x="566" y="297"/>
			<point x="570" y="300"/>
			<point x="574" y="304" type="curve" smooth="yes"/>
			<point x="587" y="317" type="line"/>
			<point x="587" y="322"/>
			<point x="588" y="330"/>
			<point x="591" y="340" type="curve"/>
			<point x="596" y="343"/>
			<point x="604" y="351"/>
			<point x="613" y="364" type="curve"/>
			<point x="622" y="395" type="line" smooth="yes"/>
			<point x="630" y="422"/>
			<point x="632" y="449"/>
			<point x="633" y="477" type="curve" smooth="yes"/>
			<point x="634" y="531" type="line" smooth="yes"/>
			<point x="634" y="548"/>
			<point x="638" y="579"/>
			<point x="646" y="626" type="curve"/>
			<point x="652" y="607"/>
			<point x="655" y="592"/>
			<point x="655" y="581" type="curve" smooth="yes"/>
			<point x="655" y="570"/>
			<point x="653" y="559"/>
			<point x="650" y="547" type="curve"/>
			<point x="643" y="529" type="line"/>
			<point x="643" y="526"/>
			<point x="646" y="521"/>
			<point x="653" y="514" type="curve" smooth="yes"/>
			<point x="661" y="506"/>
			<point x="669" y="495"/>
			<point x="678" y="482" type="curve"/>
			<point x="681" y="470" type="line"/>
			<point x="681" y="461"/>
			<point x="668" y="441"/>
			<point x="667" y="432" type="curve" smooth="yes"/>
			<point x="665" y="414"/>
			<point x="663" y="394"/>
			<point x="657" y="372" type="curve" smooth="yes"/>
			<point x="653" y="357"/>
			<point x="646" y="345"/>
			<point x="640" y="336" type="curve" smooth="yes"/>
			<point x="634" y="327"/>
			<point x="632" y="322"/>
			<point x="633" y="322" type="curve" smooth="yes"/>
			<point x="644" y="327" type="line"/>
			<point x="655" y="330"/>
			<point x="668" y="343"/>
			<point x="682" y="364" type="curve" smooth="yes"/>
			<point x="696" y="385"/>
			<point x="703" y="402"/>
			<point x="703" y="415" type="curve"/>
			<point x="701" y="436" type="line"/>
			<point x="701" y="442" type="line"/>
			<point x="704" y="457"/>
			<point x="706" y="455"/>
			<point x="706" y="459" type="curve" smooth="yes"/>
			<point x="703" y="493" type="line"/>
			<point x="703" y="514" type="line" smooth="yes"/>
			<point x="703" y="516"/>
			<point x="701" y="524"/>
			<point x="701" y="539" type="curve" smooth="yes"/>
			<point x="701" y="541"/>
			<point x="696" y="547"/>
			<point x="689" y="556" type="curve" smooth="yes"/>
			<point x="682" y="566"/>
			<point x="677" y="575"/>
			<point x="676" y="586" type="curve"/>
		</contour>
		<contour>
			<point x="617" y="707" type="curve"/>
			<point x="592" y="699" type="line" smooth="yes"/>
			<point x="589" y="698"/>
			<point x="584" y="693"/>
			<point x="575" y="680" type="curve"/>
			<point x="570" y="658"/>
			<point x="526" y="644"/>
			<point x="441" y="636" type="curve" smooth="yes"/>
			<point x="385" y="631"/>
			<point x="372" y="627"/>
			<point x="298" y="609" type="curve"/>
			<point x="295" y="609" type="line"/>
			<point x="295" y="610" type="line"/>
			<point x="298" y="615"/>
			<point x="308" y="622"/>
			<point x="323" y="629" type="curve"/>
			<point x="318" y="634"/>
			<point x="302" y="645"/>
			<point x="275" y="660" type="curve"/>
			<point x="312" y="666" type="line"/>
			<point x="330" y="660" type="line"/>
			<point x="333" y="660"/>
			<point x="335" y="662"/>
			<point x="335" y="666" type="curve" smooth="yes"/>
			<point x="335" y="681" type="line"/>
			<point x="334" y="688"/>
			<point x="328" y="694"/>
			<point x="317" y="699" type="curve"/>
			<point x="367" y="694" type="line"/>
			<point x="370" y="710"/>
			<point x="378" y="720"/>
			<point x="392" y="723" type="curve"/>
			<point x="446" y="729" type="line" smooth="yes"/>
			<point x="478" y="733"/>
			<point x="497" y="735"/>
			<point x="504" y="735" type="curve" smooth="yes"/>
			<point x="569" y="735" type="line" smooth="yes"/>
			<point x="581" y="735"/>
			<point x="597" y="721"/>
			<point x="604" y="718" type="curve" smooth="yes"/>
			<point x="613" y="714"/>
			<point x="617" y="709"/>
		</contour>
	</outline>
</glyph>
<glyph name="lki-walakul" format="2">
	<advance width="1334"/>
	<unicode hex="F401"/>
	<outline>
		<contour>
			<point x="124" y="380" type="curve" smooth="yes"/>
			<point x="124" y="361"/>
			<point x="145" y="346"/>
			<point x="163" y="346" type="curve" smooth="yes"/>
			<point x="188" y="346"/>
			<point x="201" y="357"/>
			<point x="201" y="380" type="curve" smooth="yes"/>
			<point x="201" y="402"/>
			<point x="188" y="413"/>
			<point x="163" y="413" type="curve" smooth="yes"/>
			<point x="137" y="413"/>
			<point x="124" y="402"/>
		</contour>
		<contour>
			<point x="50" y="455" type="line"/>
			<point x="101" y="455" type="line"/>
			<point x="93" y="471"/>
			<point x="86" y="489"/>
			<point x="76" y="507" type="curve"/>
		</contour>
		<contour>
			<point x="141" y="455" type="line"/>
			<point x="186" y="455" type="line"/>
			<point x="177" y="469"/>
			<point x="172" y="485"/>
			<point x="164" y="502" type="curve"/>
		</contour>
		<contour>
			<point x="301" y="346" type="line"/>
			<point x="363" y="346" type="line"/>
			<point x="332" y="406" type="line"/>
		</contour>
		<contour>
			<point x="225" y="455" type="line"/>
			<point x="277" y="455" type="line"/>
			<point x="251" y="509" type="line"/>
		</contour>
		<contour>
			<point x="136" y="569" type="line"/>
			<point x="190" y="569" type="line"/>
			<point x="164" y="626" type="line"/>
		</contour>
		<contour>
			<point x="500" y="347" type="curve" smooth="yes"/>
			<point x="520" y="347"/>
			<point x="539" y="361"/>
			<point x="539" y="381" type="curve" smooth="yes"/>
			<point x="539" y="402"/>
			<point x="526" y="413"/>
			<point x="501" y="413" type="curve" smooth="yes"/>
			<point x="475" y="413"/>
			<point x="462" y="402"/>
			<point x="462" y="380" type="curve" smooth="yes"/>
			<point x="462" y="358"/>
			<point x="475" y="347"/>
		</contour>
		<contour>
			<point x="386" y="455" type="line"/>
			<point x="438" y="455" type="line"/>
			<point x="412" y="509" type="line"/>
		</contour>
		<contour>
			<point x="479" y="457" type="line"/>
			<point x="522" y="457" type="line"/>
			<point x="499" y="502" type="line"/>
		</contour>
		<contour>
			<point x="636" y="346" type="line"/>
			<point x="698" y="346" type="line"/>
			<point x="667" y="406" type="line"/>
		</contour>
		<contour>
			<point x="563" y="455" type="curve"/>
			<point x="613" y="455" type="line"/>
			<point x="589" y="507" type="line"/>
			<point x="581" y="494"/>
			<point x="572" y="476"/>
		</contour>
		<contour>
			<point x="474" y="569" type="curve"/>
			<point x="527" y="569" type="line"/>
			<point x="501" y="624" type="line"/>
			<point x="493" y="611"/>
			<point x="484" y="593"/>
		</contour>
		<contour>
			<point x="875" y="380" type="curve" smooth="yes"/>
			<point x="875" y="402"/>
			<point x="862" y="413"/>
			<point x="837" y="413" type="curve" smooth="yes"/>
			<point x="811" y="413"/>
			<point x="798" y="402"/>
			<point x="798" y="380" type="curve" smooth="yes"/>
			<point x="798" y="358"/>
			<point x="811" y="347"/>
			<point x="837" y="347" type="curve" smooth="yes"/>
			<point x="862" y="347"/>
			<point x="875" y="358"/>
		</contour>
		<contour>
			<point x="724" y="455" type="curve"/>
			<point x="774" y="455" type="line"/>
			<point x="750" y="507" type="line"/>
			<point x="742" y="494"/>
			<point x="733" y="476"/>
		</contour>
		<contour>
			<point x="814" y="457" type="line"/>
			<point x="858" y="457" type="line"/>
			<point x="837" y="500" type="line"/>
		</contour>
		<contour>
			<point x="974" y="346" type="line"/>
			<point x="1036" y="346" type="line"/>
			<point x="1005" y="408" type="line"/>
		</contour>
		<contour>
			<point x="898" y="455" type="line"/>
			<point x="950" y="455" type="line"/>
			<point x="924" y="509" type="line"/>
		</contour>
		<contour>
			<point x="809" y="569" type="line"/>
			<point x="863" y="569" type="line"/>
			<point x="837" y="624" type="line"/>
		</contour>
		<contour>
			<point x="1174" y="347" type="curve" smooth="yes"/>
			<point x="1192" y="347"/>
			<point x="1212" y="362"/>
			<point x="1212" y="381" type="curve" smooth="yes"/>
			<point x="1212" y="400"/>
			<point x="1191" y="415"/>
			<point x="1173" y="415" type="curve" smooth="yes"/>
			<point x="1155" y="415"/>
			<point x="1133" y="400"/>
			<point x="1133" y="382" type="curve" smooth="yes"/>
			<point x="1133" y="363"/>
			<point x="1155" y="347"/>
		</contour>
		<contour>
			<point x="1060" y="457" type="line"/>
			<point x="1110" y="457" type="line"/>
			<point x="1086" y="509" type="line"/>
		</contour>
		<contour>
			<point x="1150" y="457" type="curve"/>
			<point x="1195" y="457" type="line"/>
			<point x="1186" y="471"/>
			<point x="1181" y="487"/>
			<point x="1173" y="504" type="curve"/>
			<point x="1165" y="487"/>
			<point x="1159" y="471"/>
		</contour>
		<contour>
			<point x="1236" y="457" type="line"/>
			<point x="1286" y="457" type="line"/>
			<point x="1260" y="509" type="line"/>
		</contour>
		<contour>
			<point x="1147" y="571" type="line"/>
			<point x="1199" y="571" type="line"/>
			<point x="1191" y="589"/>
			<point x="1182" y="607"/>
			<point x="1173" y="626" type="curve"/>
		</contour>
		<contour>
			<point x="1341" y="141" type="line"/>
			<point x="1341" y="10" type="line"/>
			<point x="-4" y="10" type="line"/>
			<point x="-4" y="141" type="line"/>
		</contour>
		<contour>
			<point x="1341" y="158" type="line"/>
			<point x="1341" y="150" type="line"/>
			<point x="-4" y="150" type="line"/>
			<point x="-4" y="158" type="line"/>
		</contour>
		<contour>
			<point x="1341" y="222" type="line"/>
			<point x="1341" y="162" type="line"/>
			<point x="-4" y="162" type="line"/>
			<point x="-4" y="222" type="line"/>
		</contour>
		<contour>
			<point x="1341" y="240" type="line"/>
			<point x="1341" y="232" type="line"/>
			<point x="-4" y="232" type="line"/>
			<point x="-4" y="240" type="line"/>
		</contour>
		<contour>
			<point x="1341" y="493" type="curve"/>
			<point x="1341" y="409" type="line"/>
			<point x="1310" y="348" type="line"/>
			<point x="1313" y="347"/>
			<point x="1317" y="347"/>
			<point x="1322" y="347" type="curve" smooth="yes"/>
			<point x="1332" y="347" type="line" smooth="yes"/>
			<point x="1335" y="347"/>
			<point x="1338" y="347"/>
			<point x="1341" y="348" type="curve"/>
			<point x="1341" y="244" type="line"/>
			<point x="-4" y="244" type="line"/>
			<point x="-4" y="346" type="line"/>
			<point x="5" y="344"/>
			<point x="16" y="344"/>
			<point x="27" y="345" type="curve"/>
			<point x="-4" y="410" type="line"/>
			<point x="-4" y="492" type="line"/>
			<point x="13" y="495"/>
			<point x="22" y="508"/>
			<point x="23" y="529" type="curve" smooth="yes"/>
			<point x="24" y="550"/>
			<point x="26" y="563"/>
			<point x="27" y="567" type="curve" smooth="yes"/>
			<point x="32" y="573"/>
			<point x="37" y="575"/>
			<point x="42" y="574" type="curve"/>
			<point x="41" y="575"/>
			<point x="46" y="584"/>
			<point x="57" y="600" type="curve" smooth="yes"/>
			<point x="68" y="615"/>
			<point x="72" y="627"/>
			<point x="69" y="636" type="curve"/>
			<point x="73" y="637"/>
			<point x="77" y="638"/>
			<point x="81" y="638" type="curve"/>
			<point x="86" y="674"/>
			<point x="85" y="669"/>
			<point x="123" y="694" type="curve" smooth="yes"/>
			<point x="146" y="709"/>
			<point x="159" y="722"/>
			<point x="164" y="734" type="curve"/>
			<point x="169" y="719"/>
			<point x="178" y="708"/>
			<point x="193" y="700" type="curve" smooth="yes"/>
			<point x="201" y="698"/>
			<point x="215" y="690"/>
			<point x="236" y="675" type="curve"/>
			<point x="241" y="668"/>
			<point x="244" y="659"/>
			<point x="244" y="649" type="curve" smooth="yes"/>
			<point x="244" y="644" type="line" smooth="yes"/>
			<point x="245" y="639"/>
			<point x="249" y="637"/>
			<point x="256" y="638" type="curve"/>
			<point x="254" y="622"/>
			<point x="274" y="598"/>
			<point x="284" y="576" type="curve"/>
			<point x="291" y="576"/>
			<point x="298" y="562"/>
			<point x="305" y="534" type="curve" smooth="yes"/>
			<point x="312" y="506"/>
			<point x="319" y="492"/>
			<point x="328" y="492" type="curve" smooth="yes"/>
			<point x="349" y="492"/>
			<point x="355" y="502"/>
			<point x="358" y="521" type="curve"/>
			<point x="360" y="555" type="line"/>
			<point x="363" y="565"/>
			<point x="363" y="574"/>
			<point x="378" y="574" type="curve"/>
			<point x="379" y="581"/>
			<point x="385" y="592"/>
			<point x="395" y="605" type="curve" smooth="yes"/>
			<point x="405" y="618"/>
			<point x="409" y="629"/>
			<point x="406" y="638" type="curve"/>
			<point x="418" y="638" type="line"/>
			<point x="421" y="655"/>
			<point x="425" y="667"/>
			<point x="429" y="673" type="curve" smooth="yes"/>
			<point x="432" y="678"/>
			<point x="444" y="687"/>
			<point x="463" y="699" type="curve" smooth="yes"/>
			<point x="482" y="710"/>
			<point x="494" y="722"/>
			<point x="499" y="734" type="curve"/>
			<point x="515" y="701"/>
			<point x="538" y="699"/>
			<point x="569" y="679" type="curve" smooth="yes"/>
			<point x="578" y="671"/>
			<point x="582" y="658"/>
			<point x="581" y="639" type="curve" smooth="yes"/>
			<point x="582" y="638"/>
			<point x="586" y="638"/>
			<point x="594" y="638" type="curve"/>
			<point x="592" y="628"/>
			<point x="596" y="615"/>
			<point x="607" y="600" type="curve" smooth="yes"/>
			<point x="617" y="585"/>
			<point x="622" y="576"/>
			<point x="621" y="575" type="curve"/>
			<point x="622" y="575"/>
			<point x="626" y="574"/>
			<point x="631" y="573" type="curve"/>
			<point x="636" y="568"/>
			<point x="640" y="553"/>
			<point x="642" y="529" type="curve" smooth="yes"/>
			<point x="644" y="504"/>
			<point x="653" y="492"/>
			<point x="669" y="492" type="curve" smooth="yes"/>
			<point x="681" y="492"/>
			<point x="690" y="506"/>
			<point x="696" y="535" type="curve" smooth="yes"/>
			<point x="702" y="563"/>
			<point x="708" y="576"/>
			<point x="714" y="574" type="curve"/>
			<point x="714" y="576"/>
			<point x="719" y="585"/>
			<point x="729" y="600" type="curve" smooth="yes"/>
			<point x="738" y="615"/>
			<point x="743" y="624"/>
			<point x="743" y="629" type="curve" smooth="yes"/>
			<point x="743" y="633"/>
			<point x="743" y="636"/>
			<point x="742" y="638" type="curve"/>
			<point x="754" y="638" type="line"/>
			<point x="756" y="651"/>
			<point x="758" y="661"/>
			<point x="761" y="668" type="curve" smooth="yes"/>
			<point x="763" y="674"/>
			<point x="778" y="685"/>
			<point x="806" y="700" type="curve" smooth="yes"/>
			<point x="818" y="707"/>
			<point x="828" y="718"/>
			<point x="837" y="734" type="curve"/>
			<point x="842" y="721"/>
			<point x="851" y="710"/>
			<point x="866" y="702" type="curve" smooth="yes"/>
			<point x="891" y="687"/>
			<point x="907" y="678"/>
			<point x="912" y="673" type="curve" smooth="yes"/>
			<point x="917" y="668"/>
			<point x="918" y="656"/>
			<point x="917" y="639" type="curve" smooth="yes"/>
			<point x="918" y="638"/>
			<point x="922" y="638"/>
			<point x="930" y="638" type="curve"/>
			<point x="929" y="628"/>
			<point x="933" y="616"/>
			<point x="943" y="601" type="curve" smooth="yes"/>
			<point x="953" y="586"/>
			<point x="958" y="577"/>
			<point x="957" y="575" type="curve"/>
			<point x="965" y="573"/>
			<point x="972" y="559"/>
			<point x="979" y="532" type="curve" smooth="yes"/>
			<point x="985" y="505"/>
			<point x="993" y="492"/>
			<point x="1002" y="492" type="curve" smooth="yes"/>
			<point x="1014" y="492"/>
			<point x="1024" y="506"/>
			<point x="1032" y="534" type="curve" smooth="yes"/>
			<point x="1040" y="562"/>
			<point x="1047" y="576"/>
			<point x="1053" y="575" type="curve"/>
			<point x="1052" y="578"/>
			<point x="1055" y="586"/>
			<point x="1064" y="601" type="curve" smooth="yes"/>
			<point x="1074" y="616"/>
			<point x="1079" y="625"/>
			<point x="1079" y="629" type="curve" smooth="yes"/>
			<point x="1079" y="633"/>
			<point x="1079" y="636"/>
			<point x="1078" y="638" type="curve"/>
			<point x="1090" y="638" type="line"/>
			<point x="1091" y="649"/>
			<point x="1095" y="661"/>
			<point x="1100" y="676" type="curve" smooth="yes"/>
			<point x="1102" y="678"/>
			<point x="1114" y="685"/>
			<point x="1135" y="698" type="curve" smooth="yes"/>
			<point x="1156" y="710"/>
			<point x="1168" y="722"/>
			<point x="1173" y="734" type="curve"/>
			<point x="1180" y="723"/>
			<point x="1194" y="710"/>
			<point x="1214" y="696" type="curve" smooth="yes"/>
			<point x="1236" y="683"/>
			<point x="1247" y="675"/>
			<point x="1248" y="673" type="curve" smooth="yes"/>
			<point x="1252" y="666"/>
			<point x="1254" y="654"/>
			<point x="1254" y="639" type="curve" smooth="yes"/>
			<point x="1255" y="638"/>
			<point x="1259" y="638"/>
			<point x="1268" y="638" type="curve"/>
			<point x="1266" y="625"/>
			<point x="1273" y="610"/>
			<point x="1289" y="592" type="curve" smooth="yes"/>
			<point x="1292" y="588"/>
			<point x="1294" y="583"/>
			<point x="1295" y="577" type="curve"/>
			<point x="1301" y="575"/>
			<point x="1308" y="561"/>
			<point x="1315" y="535" type="curve" smooth="yes"/>
			<point x="1322" y="509"/>
			<point x="1331" y="495"/>
		</contour>
	</outline>
</glyph>
